<svg width="162" height="61" viewBox="0 0 162 61" fill="none" xmlns="http://www.w3.org/2000/svg">
<g id="Camada_1" clip-path="url(#clip0_1_16790)">
<path id="Vector" d="M17.0769 38.2457C16.1113 38.639 15.0452 38.8564 13.7664 38.8564C9.22815 38.8564 6.08904 35.064 6.08904 30.5108V30.4357C6.08904 25.8845 9.305 22.1672 13.7664 22.1672C14.9704 22.1672 16.0562 22.4043 17.0769 22.8371V17.0606C16.0877 16.8808 15.0058 16.782 13.8058 16.782C5.67325 16.782 0 22.9636 0 30.5128V30.5879C0 38.2121 5.78754 44.2435 13.5792 44.2435C14.8679 44.2435 16.0246 44.1269 17.0789 43.9056V38.2457H17.0769Z" fill="url(#paint0_linear_1_16790)"/>
<path id="Vector_2" d="M26.2694 32.5365V40.7813H21.7627V20.2444H26.2694V28.3706V32.5365Z" fill="url(#paint1_linear_1_16790)"/>
<path id="Vector_3" d="M34.5771 28.3706V20.2444H39.0819V40.7813H34.5771V32.5365V28.3706Z" fill="url(#paint2_linear_1_16790)"/>
<path id="Vector_4" d="M6.40827 32.9672C6.19939 32.1886 6.08904 31.3625 6.08904 30.5108V30.4357C6.08904 28.2638 6.82209 26.2817 8.0734 24.8035C7.9729 24.5209 7.89408 24.3647 7.89408 24.3647C4.97961 23.7699 2.45138 24.8786 0.512346 26.6828C0.179321 27.9002 0 29.1828 0 30.5108V30.5859C0 32.9317 0.549787 35.1253 1.53507 37.0402C3.79333 35.7043 5.35008 34.315 6.40827 32.9672Z" fill="url(#paint3_linear_1_16790)"/>
<path id="Vector_5" d="M0 30.5128V30.5879C0 32.9336 0.549787 35.1272 1.53507 37.0422C3.89974 30.3428 6.27821 26.7718 7.99852 24.8924C8.48722 24.2956 9.05868 23.7798 9.70108 23.3608C10.245 22.9814 10.5602 22.8806 10.5602 22.8806C11.5219 22.4241 12.6018 22.1672 13.7683 22.1672C14.9349 22.1672 16.0581 22.4043 17.0789 22.8371V17.0606C16.0896 16.8808 15.0078 16.782 13.8077 16.782C5.67325 16.782 0 22.9636 0 30.5128Z" fill="#9CCB3D"/>
<g id="Group">
<path id="Vector_6" d="M43.7686 22.7798C44.7341 22.3865 45.8002 22.1692 47.0791 22.1692C51.6173 22.1692 54.7564 25.9615 54.7564 30.5147V30.5898C54.7564 35.1411 51.5405 38.8583 47.0791 38.8583C45.8751 38.8583 44.7893 38.6212 43.7686 38.1884V43.9649C44.7578 44.1447 45.8396 44.2435 47.0397 44.2435C55.1722 44.2435 60.8455 38.0599 60.8455 30.5128V30.4377C60.8455 22.8134 55.0579 16.782 47.2663 16.782C45.9776 16.782 44.8209 16.8986 43.7666 17.1199V22.7798H43.7686Z" fill="url(#paint4_linear_1_16790)"/>
<path id="Vector_7" d="M54.4376 28.0564C54.6465 28.835 54.7568 29.6611 54.7568 30.5128V30.5879C54.7568 32.7598 54.0238 34.7419 52.7725 36.2202C52.873 36.5028 52.9518 36.6589 52.9518 36.6589C55.8662 37.2537 58.3945 36.1451 60.3335 34.3408C60.6665 33.1234 60.8459 31.8408 60.8459 30.5128V30.4377C60.8459 28.092 60.2961 25.8984 59.3108 23.9834C57.0525 25.3193 55.4958 26.7086 54.4376 28.0564Z" fill="url(#paint5_linear_1_16790)"/>
<path id="Vector_8" d="M60.8455 30.5128V30.4377C60.8455 28.092 60.2957 25.8984 59.3104 23.9834C56.9457 30.6828 54.5673 34.2538 52.847 36.1332C52.3583 36.73 51.7868 37.2458 51.1444 37.6648C50.6005 38.0442 50.2852 38.145 50.2852 38.145C49.3236 38.6015 48.2437 38.8584 47.0771 38.8584C45.9106 38.8584 44.7874 38.6213 43.7666 38.1885V43.965C44.7558 44.1448 45.8377 44.2436 47.0377 44.2436C55.1702 44.2436 60.8435 38.06 60.8435 30.5128H60.8455Z" fill="#9CCB3D"/>
</g>
<g id="Group_2">
<path id="Vector_9" d="M22.7092 17.1259C22.317 16.1576 22.1003 15.0884 22.1003 13.8059C22.1003 9.25464 25.8818 6.10652 30.422 6.10652H30.4968C35.035 6.10652 38.7417 9.33171 38.7417 13.8059C38.7417 15.0133 38.5052 16.1022 38.0737 17.1259H43.8336C44.0129 16.1339 44.1115 15.0489 44.1115 13.8454C44.1134 5.68954 37.9475 0 30.42 0H30.3451C22.7427 0 16.7285 5.80416 16.7285 13.6181C16.7285 14.9126 16.8448 16.0706 17.0655 17.1279H22.7092V17.1259Z" fill="url(#paint6_linear_1_16790)"/>
<path id="Vector_10" d="M27.9725 6.42667C28.7489 6.21719 29.5726 6.10652 30.4219 6.10652H30.4968C32.6624 6.10652 34.6389 6.84168 36.1129 8.09658C36.3947 7.99579 36.5503 7.91674 36.5503 7.91674C37.1435 4.99391 36.038 2.45842 34.2389 0.513817C33.025 0.179836 31.7461 0 30.4219 0H30.347C28.0079 0 25.8206 0.551365 23.9111 1.53948C25.2432 3.80422 26.6285 5.36544 27.9725 6.42667Z" fill="url(#paint7_linear_1_16790)"/>
<path id="Vector_11" d="M30.4199 0H30.345C28.006 0 25.8187 0.551365 23.9092 1.53948C30.5894 3.91094 34.1502 6.29624 36.0242 8.02148C36.6193 8.51158 37.1336 9.08469 37.5514 9.72893C37.9297 10.2744 38.0302 10.5906 38.0302 10.5906C38.4854 11.555 38.7416 12.6379 38.7416 13.8079C38.7416 14.9778 38.5051 16.1042 38.0736 17.1279H43.8335C44.0129 16.1358 44.1114 15.0509 44.1114 13.8474C44.1134 5.68954 37.9475 0 30.4199 0Z" fill="#0E92CC"/>
</g>
<g id="Group_3">
<path id="Vector_12" d="M38.1328 43.874C38.5249 44.8424 38.7417 45.9115 38.7417 47.1941C38.7417 51.7453 34.9601 54.8934 30.42 54.8934H30.3451C25.8069 54.8934 22.1003 51.6683 22.1003 47.1941C22.1003 45.9866 22.3367 44.8977 22.7683 43.874H17.0083C16.829 44.8661 16.7305 45.9511 16.7305 47.1546C16.7305 55.3104 22.8964 61 30.4219 61H30.4968C38.0993 61 44.1134 55.1958 44.1134 47.3818C44.1134 46.0874 43.9972 44.9293 43.7764 43.8721H38.1328V43.874Z" fill="url(#paint8_linear_1_16790)"/>
<path id="Vector_13" d="M32.8699 54.5732C32.0935 54.7827 31.2698 54.8934 30.4205 54.8934H30.3456C28.1799 54.8934 26.2035 54.1582 24.7295 52.9033C24.4477 53.0041 24.292 53.0832 24.292 53.0832C23.6989 56.006 24.8044 58.5415 26.6035 60.4861C27.8173 60.8201 29.0962 60.9999 30.4205 60.9999H30.4953C32.8344 60.9999 35.0217 60.4485 36.9312 59.4604C35.5991 57.1957 34.2138 55.6345 32.8699 54.5732Z" fill="url(#paint9_linear_1_16790)"/>
<path id="Vector_14" d="M30.42 61H30.4949C32.8339 61 35.0213 60.4486 36.9307 59.4605C30.2505 57.089 26.6897 54.7037 24.8157 52.9785C24.2206 52.4884 23.7063 51.9153 23.2885 51.271C22.9102 50.7256 22.8097 50.4094 22.8097 50.4094C22.3545 49.445 22.0983 48.362 22.0983 47.1921C22.0983 46.0222 22.3348 44.8958 22.7663 43.8721H17.0064C16.827 44.8641 16.7285 45.9491 16.7285 47.1526C16.7285 55.3085 22.8944 60.998 30.42 60.998V61Z" fill="#0E92CC"/>
</g>
<path id="Vector_15" d="M21.7627 34.1037H26.2694V30.1592L21.7627 34.1037Z" fill="url(#paint10_linear_1_16790)"/>
<path id="Vector_16" d="M39.0819 34.1037H34.5771V30.6235L39.0819 34.1037Z" fill="url(#paint11_linear_1_16790)"/>
<path id="Vector_17" d="M21.7627 29.3706C21.7627 29.3706 26.2674 26.5486 30.4214 26.5486C34.5753 26.5486 39.08 29.3706 39.08 29.3706V34.1037C39.08 34.1037 35.1034 30.6789 30.4214 30.6789C25.7393 30.6789 21.7627 34.1037 21.7627 34.1037V29.3706Z" fill="url(#paint12_linear_1_16790)"/>
<g id="Group_4">
<path id="Vector_18" d="M68.0254 22.094H71.5783V28.5029H78.1304V22.094H81.6834V38.2891H78.1304V31.7874H71.5783V38.2891H68.0254V22.094Z" fill="#0657A3"/>
<path id="Vector_19" d="M84.5879 32.157V32.1116C84.5879 28.5484 87.4492 25.6572 91.3016 25.6572C95.1541 25.6572 97.968 28.503 97.968 32.0661V32.1116C97.968 35.6747 95.1068 38.5659 91.2543 38.5659C87.4019 38.5659 84.5859 35.7201 84.5859 32.157H84.5879ZM94.5077 32.157V32.1116C94.5077 30.2836 93.1934 28.6868 91.2543 28.6868C89.3153 28.6868 88.0482 30.2361 88.0482 32.0641V32.1096C88.0482 33.9376 89.3626 35.5344 91.3016 35.5344C93.2406 35.5344 94.5077 33.985 94.5077 32.157Z" fill="#0657A3"/>
<path id="Vector_20" d="M99.5371 36.6469L101.037 34.3328C102.375 35.3051 103.782 35.813 104.934 35.813C105.949 35.813 106.41 35.4434 106.41 34.8881V34.8426C106.41 34.0798 105.21 33.8249 103.851 33.4079C102.121 32.898 100.16 32.0898 100.16 29.6827V29.6373C100.16 27.1156 102.189 25.7046 104.682 25.7046C106.251 25.7046 107.959 26.2362 109.297 27.1393L107.959 29.5681C106.738 28.8507 105.514 28.412 104.613 28.412C103.76 28.412 103.321 28.7816 103.321 29.2677V29.3132C103.321 30.0068 104.497 30.3309 105.835 30.7934C107.565 31.3724 109.573 32.2044 109.573 34.4731V34.5185C109.573 37.2714 107.52 38.5204 104.844 38.5204C103.114 38.5204 101.177 37.9413 99.5371 36.6469Z" fill="#0657A3"/>
<path id="Vector_21" d="M112.087 25.8885H115.595V27.669C116.448 26.513 117.624 25.6553 119.447 25.6553C122.33 25.6553 125.077 27.922 125.077 32.0642V32.1096C125.077 36.2518 122.377 38.5185 119.447 38.5185C117.579 38.5185 116.424 37.6628 115.595 36.6668V41.9887H112.087V25.8865V25.8885ZM121.569 32.1116V32.0661C121.569 30.0069 120.186 28.6413 118.546 28.6413C116.907 28.6413 115.547 30.0069 115.547 32.0661V32.1116C115.547 34.1708 116.909 35.5364 118.546 35.5364C120.184 35.5364 121.569 34.1945 121.569 32.1116Z" fill="#0657A3"/>
<path id="Vector_22" d="M127.728 21.4004H131.418V24.5228H127.728V21.4004ZM127.82 25.8884H131.328V38.2892H127.82V25.8884Z" fill="#0657A3"/>
<path id="Vector_23" d="M135.202 34.7715V28.8942H133.726V25.8864H135.202V22.7166H138.707V25.8864H141.614V28.8942H138.707V34.1925C138.707 35.0027 139.054 35.396 139.838 35.396C140.485 35.396 141.06 35.2339 141.568 34.9573V37.7793C140.829 38.218 139.976 38.4967 138.8 38.4967C136.654 38.4967 135.202 37.641 135.202 34.7715Z" fill="#0657A3"/>
<path id="Vector_24" d="M143.461 34.726V34.6805C143.461 31.9731 145.514 30.7241 148.444 30.7241C149.69 30.7241 150.59 30.9316 151.467 31.234V31.0265C151.467 29.568 150.567 28.7598 148.815 28.7598C147.477 28.7598 146.531 29.0147 145.4 29.4297L144.523 26.746C145.885 26.1452 147.223 25.752 149.321 25.752C151.237 25.752 152.62 26.2618 153.497 27.1393C154.419 28.0641 154.835 29.4297 154.835 31.0957V38.2911H151.444V36.9492C150.59 37.8978 149.414 38.5223 147.706 38.5223C145.374 38.5223 143.461 37.1804 143.461 34.7279V34.726ZM151.513 33.9157V33.2912C150.914 33.0146 150.129 32.8288 149.274 32.8288C147.775 32.8288 146.852 33.4296 146.852 34.5402V34.5857C146.852 35.5342 147.637 36.0896 148.768 36.0896C150.405 36.0896 151.513 35.1864 151.513 33.9157Z" fill="#0657A3"/>
<path id="Vector_25" d="M158.017 21.4004H161.524V38.2892H158.017V21.4004Z" fill="#0657A3"/>
</g>
<g id="Group_5">
<path id="Vector_26" d="M90.7321 45.1586H88.0049V44.6211H94.0407V45.1586H91.3135V52.4687H90.7321V45.1586Z" fill="#9CCB3D"/>
<path id="Vector_27" d="M94.5449 50.8087V50.787C94.5449 49.5993 95.5617 48.9254 97.0377 48.9254C97.8318 48.9254 98.3796 49.0262 98.9275 49.1724V48.9254C98.9275 47.7713 98.224 47.1764 97.0495 47.1764C96.3559 47.1764 95.7864 47.3681 95.2602 47.6369L95.0592 47.1547C95.6859 46.8642 96.3007 46.6606 97.083 46.6606C97.8653 46.6606 98.4683 46.8741 98.8821 47.2891C99.2624 47.6705 99.4634 48.1962 99.4634 48.9037V52.4688H98.9275V51.5162C98.5353 52.0656 97.8318 52.6031 96.748 52.6031C95.6642 52.6031 94.5449 51.9984 94.5449 50.8087ZM98.9373 50.3265V49.6764C98.4565 49.5538 97.82 49.4175 97.0042 49.4175C95.7962 49.4175 95.1262 49.955 95.1262 50.7514V50.7732C95.1262 51.6032 95.9086 52.0854 96.7815 52.0854C97.9441 52.0854 98.9393 51.368 98.9393 50.3246L98.9373 50.3265Z" fill="#9CCB3D"/>
<path id="Vector_28" d="M102.158 53.4095L102.481 52.9609C103.163 53.4885 103.945 53.7672 104.784 53.7672C106.093 53.7672 107.021 53.0162 107.021 51.5479V50.7179C106.528 51.4234 105.77 52.04 104.64 52.04C103.265 52.04 101.901 50.9866 101.901 49.3503V49.3286C101.901 47.6804 103.265 46.6152 104.64 46.6152C105.781 46.6152 106.552 47.22 107.021 47.8938V46.7496H107.569V51.5815C107.569 52.4115 107.301 53.0617 106.842 53.5201C106.349 54.0142 105.612 54.283 104.774 54.283C103.825 54.283 102.942 53.9905 102.158 53.4095ZM107.054 49.3404V49.3187C107.054 47.9966 105.88 47.1429 104.696 47.1429C103.511 47.1429 102.493 47.9729 102.493 49.3068V49.3286C102.493 50.6171 103.521 51.5143 104.696 51.5143C105.87 51.5143 107.054 50.6408 107.054 49.3385V49.3404Z" fill="#9CCB3D"/>
<path id="Vector_29" d="M110.563 44.2832H111.111V52.4667H110.563V44.2832Z" fill="#9CCB3D"/>
<path id="Vector_30" d="M114.119 44.5085H114.801V45.2595H114.119V44.5085ZM114.186 46.7516H114.734V52.4688H114.186V46.7516Z" fill="#9CCB3D"/>
<path id="Vector_31" d="M117.73 46.7496H118.278V47.8148C118.659 47.1429 119.295 46.6152 120.336 46.6152C121.778 46.6152 122.615 47.6014 122.615 48.9689V52.4668H122.068V49.0697C122.068 47.8919 121.408 47.1192 120.257 47.1192C119.106 47.1192 118.278 47.9709 118.278 49.1586V52.4648H117.73V46.7476V46.7496Z" fill="#9CCB3D"/>
<path id="Vector_32" d="M125.03 49.6191V49.5974C125.03 47.9373 126.193 46.6152 127.736 46.6152C129.279 46.6152 130.353 47.9156 130.353 49.6092C130.353 49.71 130.353 49.7436 130.341 49.8345H125.612C125.712 51.2574 126.729 52.0874 127.846 52.0874C128.729 52.0874 129.334 51.6941 129.803 51.1902L130.183 51.5261C129.602 52.1546 128.92 52.6032 127.825 52.6032C126.327 52.6032 125.03 51.4036 125.03 49.6211V49.6191ZM129.76 49.3385C129.681 48.1844 129.021 47.1192 127.714 47.1192C126.585 47.1192 125.714 48.0717 125.614 49.3385H129.762H129.76Z" fill="#9CCB3D"/>
<path id="Vector_33" d="M136.981 44.2832H137.529V47.8147C137.91 47.1428 138.546 46.6152 139.587 46.6152C141.029 46.6152 141.866 47.6013 141.866 48.9688V52.4668H141.319V49.0696C141.319 47.8918 140.659 47.1191 139.508 47.1191C138.357 47.1191 137.529 47.9709 137.529 49.1586V52.4648H136.981V44.2812V44.2832Z" fill="#9CCB3D"/>
<path id="Vector_34" d="M144.28 49.6191V49.5974C144.28 47.9373 145.443 46.6152 146.986 46.6152C148.529 46.6152 149.603 47.9156 149.603 49.6092C149.603 49.71 149.603 49.7436 149.591 49.8345H144.862C144.962 51.2574 145.979 52.0874 147.096 52.0874C147.979 52.0874 148.584 51.6941 149.053 51.1902L149.433 51.5261C148.852 52.1546 148.17 52.6032 147.075 52.6032C145.577 52.6032 144.28 51.4036 144.28 49.6211V49.6191ZM149.01 49.3385C148.931 48.1844 148.271 47.1192 146.964 47.1192C145.835 47.1192 144.964 48.0717 144.864 49.3385H149.012H149.01Z" fill="#9CCB3D"/>
<path id="Vector_35" d="M152.038 46.7496H152.586V48.376C153.033 47.3563 153.983 46.6152 155.112 46.6607V47.2654H155.057C153.739 47.2654 152.586 48.2634 152.586 50.125V52.4688H152.038V46.7516V46.7496Z" fill="#9CCB3D"/>
<path id="Vector_36" d="M156.679 49.6191V49.5974C156.679 47.9373 157.841 46.6152 159.384 46.6152C160.927 46.6152 162.001 47.9156 162.001 49.6092C162.001 49.71 162.001 49.7436 161.989 49.8345H157.26C157.361 51.2574 158.377 52.0874 159.495 52.0874C160.377 52.0874 160.982 51.6941 161.451 51.1902L161.832 51.5261C161.25 52.1546 160.569 52.6032 159.473 52.6032C157.975 52.6032 156.679 51.4036 156.679 49.6211V49.6191ZM161.408 49.3385C161.329 48.1844 160.669 47.1192 159.363 47.1192C158.233 47.1192 157.363 48.0717 157.262 49.3385H161.41H161.408Z" fill="#9CCB3D"/>
</g>
</g>
<defs>
<linearGradient id="paint0_linear_1_16790" x1="0" y1="30.5128" x2="17.0769" y2="30.5128" gradientUnits="userSpaceOnUse">
<stop stop-color="#CBDF84"/>
<stop offset="1" stop-color="#AAD037"/>
</linearGradient>
<linearGradient id="paint1_linear_1_16790" x1="24.017" y1="40.7813" x2="24.017" y2="20.2444" gradientUnits="userSpaceOnUse">
<stop stop-color="#AAD037"/>
<stop offset="1" stop-color="#9CCB3D"/>
</linearGradient>
<linearGradient id="paint2_linear_1_16790" x1="36.8295" y1="-1.76112e-05" x2="36.8295" y2="-1.76112e-05" gradientUnits="userSpaceOnUse">
<stop stop-color="#AAD037"/>
<stop offset="1" stop-color="#9CCB3D"/>
</linearGradient>
<linearGradient id="paint3_linear_1_16790" x1="4.03768" y1="37.1865" x2="4.03768" y2="24.3489" gradientUnits="userSpaceOnUse">
<stop stop-color="#CBDF84" stop-opacity="0"/>
<stop offset="1" stop-color="#84AB3F"/>
</linearGradient>
<linearGradient id="paint4_linear_1_16790" x1="60.8455" y1="30.5128" x2="43.7686" y2="30.5128" gradientUnits="userSpaceOnUse">
<stop stop-color="#CBDF84"/>
<stop offset="1" stop-color="#AAD037"/>
</linearGradient>
<linearGradient id="paint5_linear_1_16790" x1="56.8082" y1="22.6751" x2="56.8082" y2="35.5127" gradientUnits="userSpaceOnUse">
<stop stop-color="#CBDF84" stop-opacity="0"/>
<stop offset="1" stop-color="#84AB3F"/>
</linearGradient>
<linearGradient id="paint6_linear_1_16790" x1="16.7285" y1="8.56296" x2="44.1134" y2="8.56296" gradientUnits="userSpaceOnUse">
<stop stop-color="#8CCCE6"/>
<stop offset="1" stop-color="#36A6D6"/>
</linearGradient>
<linearGradient id="paint7_linear_1_16790" x1="24.654" y1="4.04928" x2="37.4548" y2="4.04928" gradientUnits="userSpaceOnUse">
<stop stop-color="#36A6D6" stop-opacity="0"/>
<stop offset="1" stop-color="#0657A3"/>
</linearGradient>
<linearGradient id="paint8_linear_1_16790" x1="30.4219" y1="61.002" x2="30.4219" y2="43.874" gradientUnits="userSpaceOnUse">
<stop stop-color="#8CCCE6"/>
<stop offset="1" stop-color="#36A6D6"/>
</linearGradient>
<linearGradient id="paint9_linear_1_16790" x1="24.1304" y1="56.9526" x2="35.3883" y2="56.9526" gradientUnits="userSpaceOnUse">
<stop stop-color="#0657A3"/>
<stop offset="1" stop-color="#36A6D6" stop-opacity="0"/>
</linearGradient>
<linearGradient id="paint10_linear_1_16790" x1="25.8142" y1="34.4002" x2="23.6884" y2="31.7323" gradientUnits="userSpaceOnUse">
<stop stop-color="#CBDF84" stop-opacity="0"/>
<stop offset="0.06" stop-color="#C4DA7D" stop-opacity="0.09"/>
<stop offset="0.3" stop-color="#ADC967" stop-opacity="0.41"/>
<stop offset="0.52" stop-color="#9BBC56" stop-opacity="0.67"/>
<stop offset="0.72" stop-color="#8EB249" stop-opacity="0.85"/>
<stop offset="0.88" stop-color="#86AD41" stop-opacity="0.96"/>
<stop offset="1" stop-color="#84AB3F"/>
</linearGradient>
<linearGradient id="paint11_linear_1_16790" x1="35.4797" y1="34.1867" x2="37.2775" y2="31.7707" gradientUnits="userSpaceOnUse">
<stop stop-color="#CBDF84" stop-opacity="0"/>
<stop offset="0.06" stop-color="#C4DA7D" stop-opacity="0.09"/>
<stop offset="0.3" stop-color="#ADC967" stop-opacity="0.41"/>
<stop offset="0.52" stop-color="#9BBC56" stop-opacity="0.67"/>
<stop offset="0.72" stop-color="#8EB249" stop-opacity="0.85"/>
<stop offset="0.88" stop-color="#86AD41" stop-opacity="0.96"/>
<stop offset="1" stop-color="#84AB3F"/>
</linearGradient>
<linearGradient id="paint12_linear_1_16790" x1="21.7627" y1="30.3251" x2="39.082" y2="30.3251" gradientUnits="userSpaceOnUse">
<stop stop-color="#0657A3"/>
<stop offset="0.5" stop-color="#0E92CC"/>
<stop offset="1" stop-color="#0657A3"/>
</linearGradient>
<clipPath id="clip0_1_16790">
<rect width="162" height="61" fill="white"/>
</clipPath>
</defs>
</svg>
