<svg width="73" height="61" viewBox="0 0 73 61" fill="none" xmlns="http://www.w3.org/2000/svg">
<g id="SVG" clip-path="url(#clip0_1688_3253)">
<g id="Clip path group">
<mask id="mask0_1688_3253" style="mask-type:luminance" maskUnits="userSpaceOnUse" x="0" y="0" width="73" height="61">
<g id="clip0_1357_5001">
<path id="Vector" d="M72.3371 0.75H0V60.75H72.3371V0.75Z" fill="white"/>
</g>
</mask>
<g mask="url(#mask0_1688_3253)">
<g id="Group">
<path id="Vector_2" d="M29.8269 1.09631C13.3537 1.09631 3.68591e-05 14.4503 3.68591e-05 30.9232C-0.0104315 37.5697 2.2092 44.0276 6.30367 49.2632C6.45281 47.0728 6.71353 45.0046 7.15251 43.5455C8.63859 38.608 9.62884 36.4222 12.1659 33.7595C14.2106 31.6123 18.1225 30.0115 18.2671 29.9168C18.2867 29.9034 18.3159 29.967 18.352 30.0922C18.6945 29.9147 18.9931 29.7185 19.1759 29.3795C19.5114 28.7567 19.7511 27.5233 20.0384 27.5233C20.3258 27.5233 24.311 27.4752 24.4279 27.5233C24.5448 27.5713 24.5925 28.8655 24.8321 29.2967C24.9627 29.5315 25.4483 29.7806 25.8849 30.0206C25.8996 30.0151 25.9156 30.0134 25.9312 30.0157C26.2796 30.0568 32.4061 30.9281 35.8512 30.6923C40.8692 30.3512 42.7065 28.7472 48.7855 28.9943C48.7855 28.9943 49.4712 30.5758 48.8371 33.4637C48.7192 34.0017 43.5665 36.9443 39.5698 37.8616C35.6684 38.7568 33.4051 39.4024 32.1481 40.6608C31.3607 41.4492 31.8758 46.4752 31.7972 50.6731C31.7348 53.9365 31.2782 59.6211 31.1881 60.7191C47.0289 60.0075 59.6534 46.9402 59.6534 30.9235C59.6537 14.4503 46.3001 1.09631 29.8269 1.09631Z" fill="#C1E9E7"/>
<path id="Vector_3" d="M52.1686 3.65511C53.1297 3.35824 56.7198 1.79532 61.325 1.20299C66.6483 0.517324 72.0866 0.813838 72.2771 0.813838C72.6322 0.813838 71.3037 4.5657 71.1542 6.19249C70.7861 10.1854 71.7574 12.9527 71.1223 12.8892C70.1029 12.7871 66.5254 12.3597 61.7953 13.1411C57.3798 13.8707 52.5816 16.2193 52.1693 15.162C51.8657 14.3858 52.1686 3.65511 52.1686 3.65511Z" fill="url(#paint0_linear_1688_3253)"/>
<path id="Vector_4" d="M52.7594 28.3521C52.8545 16.0354 52.9412 6.06409 52.8794 4.42467C52.7489 0.963706 51.579 1.57042 51.6295 4.42467C51.7485 11.1726 51.7681 19.01 51.7274 28.5405" fill="url(#paint1_linear_1688_3253)"/>
<path id="Vector_5" d="M20.1929 26.2046C20.1929 27.0194 20.2536 28.6363 19.9181 29.5469C19.5826 30.4575 24.5679 30.1224 24.4241 29.6908C24.2802 29.2592 23.8977 26.5751 23.9447 26.2393C23.9917 25.9035 20.1929 26.2046 20.1929 26.2046Z" fill="url(#paint2_linear_1688_3253)"/>
<path id="Vector_6" d="M16.7443 18.6377C16.705 19.0812 16.6987 20.0434 16.6987 20.0434C15.5368 20.1006 15.4231 20.7582 15.4154 21.3898C15.401 22.5503 15.8424 23.6152 17.1625 23.9514C17.3436 23.9974 17.9423 26.5674 21.9026 26.4116C24.4038 26.3112 25.8881 25.9758 26.7899 23.1914C26.8756 22.9264 28.8603 22.812 28.2827 20.395C28.0279 19.329 27.1114 19.9837 27.1184 19.8511C27.1387 19.4749 27.0942 19.2546 27.0514 18.8812C26.8598 17.2035 26.4664 16.4951 25.853 15.6694C25.134 14.7009 23.3616 14.3752 21.6348 14.3752C19.5722 14.3752 17.0517 15.1514 16.7443 18.6377Z" fill="url(#paint3_linear_1688_3253)"/>
<path id="Vector_7" d="M27.117 19.8511C26.6671 18.3296 26.6394 17.7786 26.4267 17.1407C26.2348 16.5652 25.5986 16.1817 25.407 16.0859C25.2154 15.9901 25.0845 15.994 24.5922 15.955C24.3466 15.9357 23.5455 16.0954 23.0672 16.0382C22.2671 15.942 21.705 15.5715 20.6263 15.6676C19.9512 15.7276 19.6066 16.0859 19.1753 16.2291C18.744 16.3722 18.0247 16.5298 17.5934 17.0091C17.0541 17.6081 17.0193 20.0364 16.6983 20.0427C16.0607 20.055 15.7101 20.3936 15.7101 20.3936C15.5529 20.2648 14.8132 19.1517 14.8609 18.7205C14.9087 18.2892 15.1487 17.8081 15.0529 17.426C14.9571 17.0439 14.8072 16.9467 14.8578 16.6589C14.9083 16.3712 14.8609 15.1251 15.2438 14.7896C15.6266 14.4542 16.1891 14.4668 16.3811 14.2282C16.573 13.9896 16.5993 13.679 17.1134 13.4962C17.3436 13.4145 17.9282 13.4485 18.1201 13.3046C18.3121 13.1608 18.6602 12.8513 19.0918 12.8032C19.5234 12.7551 20.1592 12.7295 20.6386 12.6814C21.1179 12.6333 21.859 12.4898 22.8658 12.5856C23.8725 12.6814 25.0708 12.6463 25.5502 12.9821C26.0295 13.318 26.0414 14.1194 26.2822 14.4072C26.5229 14.6949 26.6176 15.1742 26.8573 15.8932C27.097 16.6122 27.3654 18.0022 27.2408 18.7707C27.1163 19.5391 27.117 19.8511 27.117 19.8511Z" fill="url(#paint4_linear_1688_3253)"/>
<path id="Vector_8" d="M47.6508 29.7806C48.7968 29.6873 49.8358 29.4676 50.152 29.2658C50.4682 29.0641 50.9464 28.264 51.4451 28.0615C52.0599 27.8117 52.7592 27.7363 52.954 27.7359C53.4452 27.7359 52.9792 28.3844 53.0985 28.3721C53.2178 28.3598 53.4294 28.2812 53.9309 28.4696C54.4323 28.6581 54.1884 30.0656 54.2607 30.4487C54.3948 31.1572 54.4734 32.2092 53.9207 32.5482C53.368 32.8872 53.0554 32.8208 52.1364 32.8886C51.3002 32.95 50.7734 32.5942 50.4941 32.4545C50.2148 32.3148 48.4491 32.9324 47.8974 32.9654C47.3458 32.9984 47.4497 29.7971 47.6508 29.7806Z" fill="url(#paint5_linear_1688_3253)"/>
<path id="Vector_9" d="M24.8323 29.2964C24.5926 28.8651 24.5448 27.5706 24.4279 27.5229C24.3112 27.4752 20.3263 27.5229 20.0386 27.5229C19.7508 27.5229 19.5122 28.7563 19.1761 29.3792C18.9932 29.7182 18.6946 29.9143 18.3521 30.0919C18.5788 30.8828 19.0757 34.1564 19.1999 36.6787C19.3438 39.6028 19.3915 43.1981 19.2957 45.4032C19.2185 47.176 19.5445 55.7019 19.675 58.9769C21.7536 59.7298 23.9097 60.2477 26.1035 60.5209C25.9239 58.6467 25.1765 50.3124 25.4186 43.6424C25.485 41.8198 25.7193 37.8293 26.0896 34.1641C26.3513 31.5766 25.6435 30.1214 25.8867 30.0203C25.4485 29.7803 24.9628 29.5308 24.8323 29.2964Z" fill="url(#paint6_linear_1688_3253)"/>
<path id="Vector_10" d="M24.8323 29.2964C24.5926 28.8651 24.5448 27.5706 24.4279 27.5229C24.3112 27.4752 20.3263 27.5229 20.0386 27.5229C19.7508 27.5229 19.5122 28.7563 19.1761 29.3792C18.9932 29.7182 18.6946 29.9143 18.3521 30.0919C18.5788 30.8828 19.0757 34.1564 19.1999 36.6787C19.3438 39.6028 19.3915 43.1981 19.2957 45.4032C19.2185 47.176 19.5445 55.7019 19.675 58.9769C21.7536 59.7298 23.9097 60.2477 26.1035 60.5209C25.9239 58.6467 25.1765 50.3124 25.4186 43.6424C25.485 41.8198 25.7193 37.8293 26.0896 34.1641C26.3513 31.5766 25.6435 30.1214 25.8867 30.0203C25.4485 29.7803 24.9628 29.5308 24.8323 29.2964Z" fill="url(#paint7_linear_1688_3253)"/>
<path id="Vector_11" d="M32.1498 40.6604C33.4067 39.4021 35.6701 38.7564 39.5714 37.8612C43.5682 36.944 48.7209 34.0013 48.8388 33.4634C49.4729 30.5754 48.7872 28.9939 48.7872 28.9939C42.7081 28.7483 40.8719 30.3508 35.8529 30.6919C32.4077 30.9263 26.2813 30.0564 25.9328 30.0154C25.5665 29.9726 26.3648 31.4418 26.0893 34.1641C25.7191 37.8293 25.4847 41.8198 25.4184 43.6424C25.1763 50.3096 25.9237 58.6453 26.1034 60.5209C27.3386 60.6746 28.5821 60.7516 29.8268 60.7514C30.283 60.7514 30.7368 60.741 31.1883 60.7202C31.2785 59.6225 31.735 53.9379 31.7975 50.6741C31.8778 46.4749 31.3624 41.4489 32.1498 40.6604Z" fill="url(#paint8_linear_1688_3253)"/>
<path id="Vector_12" d="M32.1498 40.6604C33.4067 39.4021 35.6701 38.7564 39.5714 37.8612C43.5682 36.944 48.7209 34.0013 48.8388 33.4634C49.4729 30.5754 48.7872 28.9939 48.7872 28.9939C42.7081 28.7483 40.8719 30.3508 35.8529 30.6919C32.4077 30.9263 26.2813 30.0564 25.9328 30.0154C25.5665 29.9726 26.3648 31.4418 26.0893 34.1641C25.7191 37.8293 25.4847 41.8198 25.4184 43.6424C25.1763 50.3096 25.9237 58.6453 26.1034 60.5209C27.3386 60.6746 28.5821 60.7516 29.8268 60.7514C30.283 60.7514 30.7368 60.741 31.1883 60.7202C31.2785 59.6225 31.735 53.9379 31.7975 50.6741C31.8778 46.4749 31.3624 41.4489 32.1498 40.6604Z" fill="url(#paint9_linear_1688_3253)"/>
<path id="Vector_13" d="M19.2956 45.4032C19.3914 43.1982 19.3437 39.6028 19.1998 36.6787C19.0559 33.7546 18.4106 29.8199 18.2671 29.9168C18.1236 30.0136 14.2107 31.6134 12.1659 33.7606C9.62887 36.425 8.63862 38.609 7.15255 43.5466C6.71357 45.0057 6.45284 47.0739 6.30371 49.2642C9.75927 53.6945 14.3935 57.0611 19.6749 58.9779C19.5444 55.7019 19.2184 47.176 19.2956 45.4032Z" fill="url(#paint10_linear_1688_3253)"/>
<path id="Vector_14" d="M19.2956 45.4032C19.3914 43.1982 19.3437 39.6028 19.1998 36.6787C19.0559 33.7546 18.4106 29.8199 18.2671 29.9168C18.1236 30.0136 14.2107 31.6134 12.1659 33.7606C9.62887 36.425 8.63862 38.609 7.15255 43.5466C6.71357 45.0057 6.45284 47.0739 6.30371 49.2642C9.75927 53.6945 14.3935 57.0611 19.6749 58.9779C19.5444 55.7019 19.2184 47.176 19.2956 45.4032Z" fill="url(#paint11_linear_1688_3253)"/>
<path id="Vector_15" d="M52.3669 29.4111C52.3554 30.8941 51.9981 32.1833 52.3617 32.6535C52.5649 32.9156 52.7333 32.7689 52.7329 32.8542C52.7214 36.6892 52.548 38.5038 52.6028 39.2466C52.7263 40.9197 51.2444 41.7879 51.3665 38.5946C51.5283 34.3455 51.5283 36.198 51.7272 29.601L52.3669 29.4111Z" fill="url(#paint12_linear_1688_3253)"/>
</g>
</g>
</g>
</g>
<defs>
<linearGradient id="paint0_linear_1688_3253" x1="62.1855" y1="0.749973" x2="62.1855" y2="15.4311" gradientUnits="userSpaceOnUse">
<stop offset="0.01" stop-color="#69C1BD"/>
<stop offset="0.31" stop-color="#61BFBA"/>
<stop offset="0.77" stop-color="#4BB9B0"/>
<stop offset="1" stop-color="#3DB5AA"/>
</linearGradient>
<linearGradient id="paint1_linear_1688_3253" x1="52.0053" y1="18.7401" x2="53.1345" y2="3.15686" gradientUnits="userSpaceOnUse">
<stop stop-color="#F2A7B6"/>
<stop offset="0.05" stop-color="#F2A3B2"/>
<stop offset="0.36" stop-color="#EF909F"/>
<stop offset="0.68" stop-color="#ED8494"/>
<stop offset="1" stop-color="#ED8090"/>
</linearGradient>
<linearGradient id="paint2_linear_1688_3253" x1="22.1653" y1="26.0807" x2="22.1653" y2="30.1249" gradientUnits="userSpaceOnUse">
<stop stop-color="#E7B2A2"/>
<stop offset="0.24" stop-color="#F0BFAE"/>
<stop offset="0.56" stop-color="#F7C8B7"/>
<stop offset="1" stop-color="#F9CBBA"/>
</linearGradient>
<linearGradient id="paint3_linear_1688_3253" x1="17.5015" y1="24.776" x2="26.2439" y2="16.0336" gradientUnits="userSpaceOnUse">
<stop stop-color="#E7B2A2"/>
<stop offset="0.04" stop-color="#EAB6A6"/>
<stop offset="0.2" stop-color="#F3C2B1"/>
<stop offset="0.43" stop-color="#F8C9B8"/>
<stop offset="1" stop-color="#F9CBBA"/>
</linearGradient>
<linearGradient id="paint4_linear_1688_3253" x1="7255.86" y1="3855.28" x2="8963.34" y2="6561.2" gradientUnits="userSpaceOnUse">
<stop offset="0.01" stop-color="#69C1BD"/>
<stop offset="0.31" stop-color="#61BFBA"/>
<stop offset="0.77" stop-color="#4BB9B0"/>
<stop offset="1" stop-color="#3DB5AA"/>
</linearGradient>
<linearGradient id="paint5_linear_1688_3253" x1="50.993" y1="32.9374" x2="50.769" y2="27.8289" gradientUnits="userSpaceOnUse">
<stop stop-color="#E7B2A2"/>
<stop offset="0.13" stop-color="#EBB7A7"/>
<stop offset="0.6" stop-color="#F5C6B5"/>
<stop offset="1" stop-color="#F9CBBA"/>
</linearGradient>
<linearGradient id="paint6_linear_1688_3253" x1="5730.29" y1="4969.81" x2="5730.29" y2="61073" gradientUnits="userSpaceOnUse">
<stop stop-color="#D4E8E7"/>
<stop offset="0.52" stop-color="#D1E4E5"/>
<stop offset="1" stop-color="#CAD9E0"/>
</linearGradient>
<linearGradient id="paint7_linear_1688_3253" x1="5730.29" y1="29816.4" x2="5730.29" y2="61230.5" gradientUnits="userSpaceOnUse">
<stop stop-color="#F2A7B6"/>
<stop offset="0.05" stop-color="#F2A3B2"/>
<stop offset="0.36" stop-color="#EF909F"/>
<stop offset="0.68" stop-color="#ED8494"/>
<stop offset="1" stop-color="#ED8090"/>
</linearGradient>
<linearGradient id="paint8_linear_1688_3253" x1="27555.6" y1="4786.25" x2="27555.6" y2="58817.4" gradientUnits="userSpaceOnUse">
<stop stop-color="#D4E8E7"/>
<stop offset="0.52" stop-color="#D1E4E5"/>
<stop offset="1" stop-color="#CAD9E0"/>
</linearGradient>
<linearGradient id="paint9_linear_1688_3253" x1="42.8699" y1="54.1523" x2="28.1744" y2="28.6988" gradientUnits="userSpaceOnUse">
<stop stop-color="#4FB1C9"/>
<stop offset="0.57" stop-color="#3DA4BF"/>
<stop offset="1" stop-color="#2C99B5"/>
</linearGradient>
<linearGradient id="paint10_linear_1688_3253" x1="6273.52" y1="4380.05" x2="6273.52" y2="53761.2" gradientUnits="userSpaceOnUse">
<stop stop-color="#D4E8E7"/>
<stop offset="0.52" stop-color="#D1E4E5"/>
<stop offset="1" stop-color="#CAD9E0"/>
</linearGradient>
<linearGradient id="paint11_linear_1688_3253" x1="3656.64" y1="40283.3" x2="8841.05" y2="40283.3" gradientUnits="userSpaceOnUse">
<stop stop-color="#4FB1C9"/>
<stop offset="0.57" stop-color="#3DA4BF"/>
<stop offset="1" stop-color="#2C99B5"/>
</linearGradient>
<linearGradient id="paint12_linear_1688_3253" x1="2255.46" y1="9505.47" x2="3156" y2="7999.2" gradientUnits="userSpaceOnUse">
<stop stop-color="#F2A7B6"/>
<stop offset="0.05" stop-color="#F2A3B2"/>
<stop offset="0.36" stop-color="#EF909F"/>
<stop offset="0.68" stop-color="#ED8494"/>
<stop offset="1" stop-color="#ED8090"/>
</linearGradient>
<clipPath id="clip0_1688_3253">
<rect width="73" height="60" fill="white" transform="translate(0 0.75)"/>
</clipPath>
</defs>
</svg>
