<svg width="24" height="25" viewBox="0 0 24 25" fill="none" xmlns="http://www.w3.org/2000/svg">
<g id="arrow right">
<path id="XMLID 1522" d="M19.3652 13.2466L14.3852 18.2466C14.2252 18.4066 14.0251 18.4866 13.8251 18.4866C13.6251 18.4866 13.4251 18.4066 13.2652 18.2466C12.9451 17.9266 12.9451 17.4266 13.2652 17.1066L16.8852 13.4666H5.20515C4.76515 13.4666 4.40515 13.1066 4.40515 12.6666C4.40515 12.2266 4.76515 11.8666 5.20515 11.8666H16.8852L13.2652 8.22665C12.9451 7.90665 12.9451 7.40665 13.2652 7.08665C13.5851 6.76665 14.0852 6.76665 14.4052 7.08665L19.3852 12.0866C19.6852 12.4266 19.6852 12.9466 19.3652 13.2466Z" fill="black"/>
</g>
</svg>
