<svg width="12" height="12" viewBox="0 0 12 12" fill="none" xmlns="http://www.w3.org/2000/svg">
<g id="Down">
<path id="Subtract" fill-rule="evenodd" clip-rule="evenodd" d="M12 9C12 10.6569 10.6569 12 9 12L3 12C1.34315 12 1.60169e-08 10.6569 3.57746e-08 9L1.07324e-07 3C1.27082e-07 1.34315 1.34315 -1.27082e-07 3 -1.07324e-07L9 -3.57746e-08C10.6569 -1.60169e-08 12 1.34315 12 3L12 9ZM5.82322 5.96256C5.92085 6.06019 6.07915 6.06019 6.17678 5.96256L7.26967 4.86967C7.56256 4.57678 8.03744 4.57678 8.33033 4.86967C8.62322 5.16256 8.62322 5.63744 8.33033 5.93033L7.23744 7.02322C6.55402 7.70664 5.44598 7.70664 4.76256 7.02322L3.66967 5.93033C3.37678 5.63744 3.37678 5.16256 3.66967 4.86967C3.96256 4.57678 4.43744 4.57678 4.73033 4.86967L5.82322 5.96256Z" fill="#9096A2"/>
</g>
</svg>
