<svg width="24" height="25" viewBox="0 0 24 25" fill="none" xmlns="http://www.w3.org/2000/svg">
<g id="icon_line/Calendar_active">
<path id="Rectangle 14 (Stroke)" fill-rule="evenodd" clip-rule="evenodd" d="M2 8.43213C2 5.67071 4.23858 3.43213 7 3.43213H17C19.7614 3.43213 22 5.67071 22 8.43213V12.4321C22 12.9844 21.5523 13.4321 21 13.4321C20.4477 13.4321 20 12.9844 20 12.4321V8.43213C20 6.77527 18.6569 5.43213 17 5.43213H7C5.34315 5.43213 4 6.77527 4 8.43213V17.4321C4 19.089 5.34315 20.4321 7 20.4321H12C12.5523 20.4321 13 20.8798 13 21.4321C13 21.9844 12.5523 22.4321 12 22.4321H7C4.23858 22.4321 2 20.1936 2 17.4321V8.43213Z" fill="#212121"/>
<path id="Vector 8 (Stroke)" fill-rule="evenodd" clip-rule="evenodd" d="M8 2.43213C8.55228 2.43213 9 2.87984 9 3.43213V6.43213C9 6.98441 8.55228 7.43213 8 7.43213C7.44772 7.43213 7 6.98441 7 6.43213V3.43213C7 2.87984 7.44772 2.43213 8 2.43213Z" fill="#212121"/>
<path id="Vector 10 (Stroke)" fill-rule="evenodd" clip-rule="evenodd" d="M6 10.4321C6 9.87984 6.44772 9.43213 7 9.43213H17C17.5523 9.43213 18 9.87984 18 10.4321C18 10.9844 17.5523 11.4321 17 11.4321H7C6.44772 11.4321 6 10.9844 6 10.4321Z" fill="#212121"/>
<path id="Vector 9 (Stroke)" fill-rule="evenodd" clip-rule="evenodd" d="M16 2.43213C16.5523 2.43213 17 2.87984 17 3.43213V6.43213C17 6.98441 16.5523 7.43213 16 7.43213C15.4477 7.43213 15 6.98441 15 6.43213V3.43213C15 2.87984 15.4477 2.43213 16 2.43213Z" fill="#212121"/>
<path id="Ellipse 1 (Stroke)" fill-rule="evenodd" clip-rule="evenodd" d="M18 16.4321C16.8954 16.4321 16 17.3276 16 18.4321C16 19.5367 16.8954 20.4321 18 20.4321C19.1046 20.4321 20 19.5367 20 18.4321C20 17.3276 19.1046 16.4321 18 16.4321ZM14 18.4321C14 16.223 15.7909 14.4321 18 14.4321C20.2091 14.4321 22 16.223 22 18.4321C22 20.6413 20.2091 22.4321 18 22.4321C15.7909 22.4321 14 20.6413 14 18.4321Z" fill="#212121"/>
</g>
</svg>
