<svg width="25" height="24" viewBox="0 0 25 24" fill="none" xmlns="http://www.w3.org/2000/svg">
<g id="Icon">
<path id="Vector" fill-rule="evenodd" clip-rule="evenodd" d="M5.30039 6.0001C4.66387 6.0001 4.05342 6.25295 3.60333 6.70304C3.15325 7.15313 2.90039 7.76358 2.90039 8.4001V18.0001C2.90039 18.6366 3.15325 19.2471 3.60333 19.6972C4.05342 20.1472 4.66387 20.4001 5.30039 20.4001H19.7004C20.3369 20.4001 20.9474 20.1472 21.3974 19.6972C21.8475 19.2471 22.1004 18.6366 22.1004 18.0001V8.4001C22.1004 7.76358 21.8475 7.15313 21.3974 6.70304C20.9474 6.25295 20.3369 6.0001 19.7004 6.0001H17.7972C17.479 6.00003 17.1738 5.87356 16.9488 5.6485L15.6036 4.3033C15.1536 3.85318 14.5433 3.60023 13.9068 3.6001H11.094C10.4575 3.60023 9.84717 3.85318 9.39719 4.3033L8.05199 5.6485C7.827 5.87356 7.52182 6.00003 7.20359 6.0001H5.30039ZM12.5004 16.8001C12.9732 16.8001 13.4413 16.707 13.8781 16.5261C14.3148 16.3451 14.7117 16.08 15.046 15.7457C15.3803 15.4114 15.6454 15.0145 15.8264 14.5778C16.0073 14.141 16.1004 13.6729 16.1004 13.2001C16.1004 12.7273 16.0073 12.2592 15.8264 11.8224C15.6454 11.3857 15.3803 10.9888 15.046 10.6545C14.7117 10.3202 14.3148 10.055 13.8781 9.87413C13.4413 9.69321 12.9732 9.6001 12.5004 9.6001C11.5456 9.6001 10.6299 9.97938 9.95481 10.6545C9.27968 11.3296 8.90039 12.2453 8.90039 13.2001C8.90039 14.1549 9.27968 15.0706 9.95481 15.7457C10.6299 16.4208 11.5456 16.8001 12.5004 16.8001Z" fill="#0A112F"/>
</g>
</svg>
