<svg width="32" height="32" viewBox="0 0 32 32" fill="none" xmlns="http://www.w3.org/2000/svg">
<g id="Chat / undefined">
<path id="Vector" d="M2.66604 16C2.66604 8.63622 8.63558 2.66667 15.9994 2.66667C23.3632 2.66667 29.3327 8.63622 29.3327 16C29.3327 23.3638 23.3632 29.3333 15.9994 29.3333C13.6722 29.3333 11.4812 28.736 9.57465 27.6859L4.38758 29.2645C3.91652 29.408 3.40476 29.28 3.05657 28.9317C2.70838 28.5837 2.58044 28.0717 2.72382 27.6008L4.30425 22.4079C3.25982 20.5054 2.66604 18.3203 2.66604 16ZM10.666 14.6667C10.666 15.403 11.263 16 11.9993 16H19.9993C20.7357 16 21.3327 15.403 21.3327 14.6667C21.3327 13.9303 20.7357 13.3333 19.9993 13.3333H11.9993C11.263 13.3333 10.666 13.9303 10.666 14.6667ZM11.9993 18.6667C11.263 18.6667 10.666 19.2636 10.666 20C10.666 20.7364 11.263 21.3333 11.9993 21.3333H17.3327C18.0691 21.3333 18.666 20.7364 18.666 20C18.666 19.2636 18.0691 18.6667 17.3327 18.6667H11.9993Z" fill="#27AE60"/>
</g>
</svg>
