<svg width="32" height="32" viewBox="0 0 32 32" fill="none" xmlns="http://www.w3.org/2000/svg">
<g id="Chat">
<g id="Iconly/Light outline/Chat">
<g id="Chat_2">
<path id="Vector" d="M16.0774 2.66676C21.6154 2.70768 26.5538 6.15736 28.4901 11.3385C30.4267 16.5201 28.9583 22.3575 24.7997 26.0105C20.6417 29.663 14.6573 30.3738 9.75726 27.7973L9.69618 27.7759C9.68665 27.7704 9.68512 27.7656 9.68307 27.7593L8.77303 27.2443C8.58768 27.1684 8.38229 27.1561 8.25689 27.1878C7.31089 27.5279 6.34405 27.8072 5.36231 28.024L5.18236 28.0457C4.10162 28.0697 3.55709 27.3685 3.55709 26.3479L3.58314 26.1293C3.82857 25.1143 4.13614 24.1153 4.48619 23.1902C4.54049 23.0151 4.52241 22.8256 4.42871 22.65L4.18362 22.1722C2.01726 18.0302 2.18063 13.0581 4.61421 9.06679C7.04747 5.076 11.3952 2.64816 16.0774 2.66676ZM16.0646 4.52616L15.6901 4.53203C11.8067 4.64314 8.23125 6.70827 6.20269 10.0353C4.10898 13.4692 3.96844 17.7465 5.83558 21.3165L6.07681 21.787C6.39766 22.3874 6.46478 23.091 6.24527 23.7935C5.90413 24.6995 5.61901 25.6256 5.3915 26.5665L5.51741 26.076L6.04372 25.9388C6.22438 25.889 6.40549 25.8366 6.58754 25.7814L7.13704 25.6073L7.69519 25.4156C8.2848 25.2533 8.91168 25.2908 9.52922 25.5454C9.65885 25.6078 9.81969 25.6946 10.0224 25.8092L10.5855 26.1323C10.5951 26.1349 10.6034 26.1372 10.6098 26.139L10.5934 26.1368L10.977 26.329C15.011 28.2768 19.8169 27.704 23.2783 24.8621L23.5719 24.6128C27.1502 21.4694 28.4134 16.4476 26.7474 11.9898C25.0812 7.53148 20.8308 4.56241 16.0646 4.52616ZM10.1547 14.4794C10.9948 14.4794 11.6765 15.16 11.6765 16.0003C11.6765 16.8405 10.9948 17.5211 10.1547 17.5211C9.31456 17.5211 8.63288 16.8405 8.63288 16.0003C8.63288 15.16 9.31456 14.4794 10.1547 14.4794ZM16.0705 14.4794C16.9107 14.4794 17.5923 15.16 17.5923 16.0003C17.5923 16.8405 16.9107 17.5211 16.0705 17.5211C15.2304 17.5211 14.5487 16.8405 14.5487 16.0003C14.5487 15.16 15.2304 14.4794 16.0705 14.4794ZM21.9864 14.4794C22.8265 14.4794 23.5082 15.16 23.5082 16.0003C23.5082 16.8405 22.8265 17.5211 21.9864 17.5211C21.1462 17.5211 20.4646 16.8405 20.4646 16.0003C20.4646 15.16 21.1462 14.4794 21.9864 14.4794Z" fill="#666666"/>
</g>
</g>
</g>
</svg>
