<svg width="26" height="26" viewBox="0 0 26 26" fill="none" xmlns="http://www.w3.org/2000/svg">
<g id="Icon">
<circle id="Ellipse 457" cx="13" cy="13" r="13" transform="rotate(180 13 13)" fill="#CCE1FF"/>
<g id="Group">
<path id="Vector" d="M13.0491 6.11479C9.21841 6.11479 6.11574 9.21746 6.11574 13.0481C6.11574 16.8788 9.21841 19.9814 13.0491 19.9814C16.8797 19.9814 19.9824 16.8788 19.9824 13.0481C19.9824 9.21745 16.8797 6.11479 13.0491 6.11479Z" stroke="#93BAFB" stroke-width="4" stroke-miterlimit="2" stroke-linejoin="round"/>
<path id="Vector_2" d="M13.049 9.58131C11.1336 9.58131 9.58229 11.1326 9.58229 13.048C9.58229 14.9633 11.1336 16.5146 13.049 16.5146C14.9643 16.5146 16.5156 14.9633 16.5156 13.048C16.5156 11.1326 14.9643 9.58131 13.049 9.58131Z" fill="#3981F7"/>
<path id="Vector_3" d="M13.0493 12.1817C12.5727 12.1817 12.1827 12.5717 12.1827 13.0484C12.1827 13.525 12.5727 13.915 13.0493 13.915C13.526 13.915 13.916 13.525 13.916 13.0484C13.916 12.5717 13.526 12.1817 13.0493 12.1817Z" fill="#93BAFB"/>
<path id="Vector_4" d="M13.0488 19.9815L13.0488 21.7148" stroke="#93BAFB" stroke-width="4" stroke-miterlimit="2" stroke-linecap="round" stroke-linejoin="round"/>
</g>
</g>
</svg>
