<svg width="22" height="23" viewBox="0 0 22 23" fill="none" xmlns="http://www.w3.org/2000/svg">
<g id="Document">
<path id="Document_2" fill-rule="evenodd" clip-rule="evenodd" d="M5.54491 0.111115H15.7884C19.5638 0.111115 21.666 2.28667 21.666 6.01445V18.64C21.666 22.4289 19.5638 24.5556 15.7884 24.5556H5.54491C1.82935 24.5556 -0.333984 22.4289 -0.333984 18.64V6.01445C-0.333984 2.28667 1.82935 0.111115 5.54491 0.111115ZM5.87491 5.80667V5.79445H9.52813C10.0549 5.79445 10.4827 6.22223 10.4827 6.74656C10.4827 7.28556 10.0549 7.71334 9.52813 7.71334H5.87491C5.34813 7.71334 4.92157 7.28556 4.92157 6.76C4.92157 6.23445 5.34813 5.80667 5.87491 5.80667ZM5.87491 13.2378H15.4571C15.9827 13.2378 16.4105 12.81 16.4105 12.2844C16.4105 11.7589 15.9827 11.3299 15.4571 11.3299H5.87491C5.34813 11.3299 4.92157 11.7589 4.92157 12.2844C4.92157 12.81 5.34813 13.2378 5.87491 13.2378ZM5.8749 18.8233H15.4571C15.9448 18.7744 16.3127 18.3577 16.3127 17.87C16.3127 17.3689 15.9448 16.9533 15.4571 16.9044H5.8749C5.50824 16.8678 5.15379 17.0389 4.95824 17.3567C4.76268 17.6622 4.76268 18.0656 4.95824 18.3833C5.15379 18.6889 5.50824 18.8722 5.8749 18.8233Z" fill="white"/>
</g>
</svg>
