<svg width="25" height="24" viewBox="0 0 25 24" fill="none" xmlns="http://www.w3.org/2000/svg">
<g id="Icon">
<path id="Vector" fill-rule="evenodd" clip-rule="evenodd" d="M4.1001 20.3999C4.1001 20.0816 4.22653 19.7764 4.45157 19.5514C4.67661 19.3263 4.98184 19.1999 5.3001 19.1999H19.7001C20.0184 19.1999 20.3236 19.3263 20.5486 19.5514C20.7737 19.7764 20.9001 20.0816 20.9001 20.3999C20.9001 20.7182 20.7737 21.0234 20.5486 21.2484C20.3236 21.4735 20.0184 21.5999 19.7001 21.5999H5.3001C4.98184 21.5999 4.67661 21.4735 4.45157 21.2484C4.22653 21.0234 4.1001 20.7182 4.1001 20.3999ZM8.0517 11.1515C8.27673 10.9265 8.5819 10.8002 8.9001 10.8002C9.21829 10.8002 9.52346 10.9265 9.7485 11.1515L11.3001 12.7031V3.5999C11.3001 3.28164 11.4265 2.97642 11.6516 2.75137C11.8766 2.52633 12.1818 2.3999 12.5001 2.3999C12.8184 2.3999 13.1236 2.52633 13.3486 2.75137C13.5737 2.97642 13.7001 3.28164 13.7001 3.5999V12.7031L15.2517 11.1515C15.3624 11.0369 15.4948 10.9455 15.6412 10.8826C15.7876 10.8197 15.9451 10.7866 16.1044 10.7852C16.2638 10.7838 16.4218 10.8142 16.5692 10.8745C16.7167 10.9349 16.8507 11.024 16.9634 11.1366C17.076 11.2493 17.1651 11.3833 17.2255 11.5308C17.2858 11.6782 17.3162 11.8362 17.3148 11.9956C17.3134 12.1549 17.2803 12.3124 17.2174 12.4588C17.1545 12.6052 17.0631 12.7376 16.9485 12.8483L13.3485 16.4483C13.1235 16.6733 12.8183 16.7996 12.5001 16.7996C12.1819 16.7996 11.8767 16.6733 11.6517 16.4483L8.0517 12.8483C7.82673 12.6233 7.70035 12.3181 7.70035 11.9999C7.70035 11.6817 7.82673 11.3765 8.0517 11.1515Z" fill="#0A112F"/>
</g>
</svg>
