<svg width="18" height="18" viewBox="0 0 18 18" fill="none" xmlns="http://www.w3.org/2000/svg">
<g id="SVG - Plus d&#39;informations sur les remboursements" clip-path="url(#clip0_1688_3249)">
<path id="Vector" d="M8.14973 5.47988H9.68973V7.01988H8.14973V5.47988ZM8.91973 13.1799C9.34323 13.1799 9.68973 12.8334 9.68973 12.4099V9.32988C9.68973 8.90638 9.34323 8.55988 8.91973 8.55988C8.49623 8.55988 8.14973 8.90638 8.14973 9.32988V12.4099C8.14973 12.8334 8.49623 13.1799 8.91973 13.1799ZM8.91973 1.62988C4.66933 1.62988 1.21973 5.07948 1.21973 9.32988C1.21973 13.5803 4.66933 17.0299 8.91973 17.0299C13.1701 17.0299 16.6197 13.5803 16.6197 9.32988C16.6197 5.07948 13.1701 1.62988 8.91973 1.62988ZM8.91973 15.4899C5.52403 15.4899 2.75973 12.7256 2.75973 9.32988C2.75973 5.93418 5.52403 3.16988 8.91973 3.16988C12.3154 3.16988 15.0797 5.93418 15.0797 9.32988C15.0797 12.7256 12.3154 15.4899 8.91973 15.4899Z" fill="#606060"/>
</g>
<defs>
<clipPath id="clip0_1688_3249">
<rect width="16.8" height="16.8" fill="white" transform="translate(0.52002 0.929993)"/>
</clipPath>
</defs>
</svg>
