<svg width="20" height="19" viewBox="0 0 20 19" fill="none" xmlns="http://www.w3.org/2000/svg">
<g id="SVG">
<path id="Vector" d="M9.99987 1.12833C5.37404 1.12833 1.6582 4.84416 1.6582 9.46999C1.6582 14.0958 5.37404 17.8117 9.99987 17.8117C14.6257 17.8117 18.3415 14.0958 18.3415 9.46999C18.3415 4.84416 14.6257 1.12833 9.99987 1.12833ZM9.99987 13.6408C9.54487 13.6408 9.1657 13.2617 9.1657 12.8067V9.46999C9.1657 9.01499 9.54487 8.63583 9.99987 8.63583C10.4549 8.63583 10.834 9.01499 10.834 9.46999V12.8067C10.834 13.2617 10.4549 13.6408 9.99987 13.6408ZM10.834 6.96749H9.1657V5.29916H10.834V6.96749Z" fill="#3878FF"/>
</g>
</svg>
