<svg width="20" height="19" viewBox="0 0 20 19" fill="none" xmlns="http://www.w3.org/2000/svg">
<g id="SVG" clip-path="url(#clip0_1688_3190)">
<path id="Vector" d="M9.54477 17.8283C4.84311 10.9275 3.93311 10.245 3.93311 7.66667C3.93311 4.25417 6.73894 1.44834 10.1514 1.44834C13.6398 1.44834 16.3698 4.25417 16.3698 7.66667C16.3698 10.1692 15.4598 10.9275 10.7581 17.7525C10.5306 18.2075 9.8481 18.2075 9.54477 17.8283Z" fill="#3878FF"/>
<path id="Vector_2" d="M10.1515 9.79C11.2823 9.79 12.199 8.87333 12.199 7.74251C12.199 6.61171 11.2823 5.69501 10.1515 5.69501C9.02068 5.69501 8.104 6.61171 8.104 7.74251C8.104 8.87333 9.02068 9.79 10.1515 9.79Z" fill="white"/>
</g>
<defs>
<clipPath id="clip0_1688_3190">
<rect width="18.2" height="18.2" fill="white" transform="translate(0.899902 0.690002)"/>
</clipPath>
</defs>
</svg>
