<svg width="24" height="24" viewBox="0 0 24 24" fill="none" xmlns="http://www.w3.org/2000/svg">
<g id="icon_line/paperclip">
<path id="Vector 16 (Stroke)" fill-rule="evenodd" clip-rule="evenodd" d="M13.1724 3.41422C14.7345 1.85212 17.2672 1.85212 18.8293 3.41422C20.3914 4.97632 20.3914 7.50897 18.8293 9.07107L9.99042 17.9099C9.01411 18.8862 7.4312 18.8862 6.45489 17.9099C5.47858 16.9336 5.47858 15.3507 6.45489 14.3744L15.2937 5.53554C15.6842 5.14501 16.3174 5.14501 16.7079 5.53554C17.0985 5.92606 17.0985 6.55923 16.7079 6.94975L7.8691 15.7886C7.67384 15.9838 7.67384 16.3004 7.8691 16.4957C8.06436 16.691 8.38095 16.691 8.57621 16.4957L17.415 7.65686C18.1961 6.87581 18.1961 5.60948 17.415 4.82843C16.634 4.04738 15.3677 4.04738 14.5866 4.82843L5.74778 13.6673C4.38095 15.0341 4.38095 17.2502 5.74778 18.617C7.11462 19.9838 9.33069 19.9838 10.6975 18.617L19.7937 9.52082C20.1842 9.1303 20.8174 9.1303 21.2079 9.52082C21.5985 9.91134 21.5985 10.5445 21.2079 10.935L12.1117 20.0312C9.96386 22.1791 6.48145 22.1791 4.33357 20.0312C2.18569 17.8833 2.18569 14.4009 4.33357 12.2531L13.1724 3.41422Z" fill="#7F7C7C"/>
</g>
</svg>
