<svg width="32" height="32" viewBox="0 0 32 32" fill="none" xmlns="http://www.w3.org/2000/svg">
<g id="Notification">
<g id="Iconly/Light outline/Notification">
<g id="Notification_2">
<path id="Vector" d="M19.4774 26.2541C19.8728 26.5762 19.9355 27.1617 19.6173 27.562C19.3822 27.858 19.1104 28.1229 18.8224 28.34C17.8522 29.1013 16.6188 29.4465 15.3938 29.3006C14.1678 29.1545 13.0494 28.5283 12.2862 27.5586C11.9699 27.1568 12.0354 26.5715 12.4323 26.2514C12.8293 25.9312 13.4074 25.9975 13.7237 26.3993C14.184 26.9841 14.8623 27.364 15.6086 27.4528C16.356 27.5419 17.1077 27.3315 17.7102 26.859C17.8878 26.725 18.0474 26.5693 18.1853 26.3958C18.5034 25.9955 19.0819 25.9321 19.4774 26.2541ZM6.86958 11.9996L6.886 11.2052C6.89773 10.8654 6.9159 10.55 6.94255 10.2413C7.34214 5.92607 11.4609 2.66666 15.9531 2.66666H16.0482C20.538 2.66666 24.658 5.92379 25.0712 10.2471C25.095 10.522 25.1051 10.7661 25.1082 11.1094L25.1094 12.1598C25.1104 12.2554 25.112 12.3396 25.1145 12.418L25.1268 12.6797L25.1862 12.9292C25.3738 13.624 25.7035 14.2737 26.1551 14.8376L26.356 15.0739L26.4383 15.1796C26.9798 15.9889 27.2892 16.9307 27.3334 17.945L27.3321 18.4827C27.2943 19.6839 26.8533 20.8441 26.0452 21.8109C24.9749 22.9468 23.5246 23.6524 21.9832 23.7943C18.0027 24.2265 13.9867 24.2265 10.0174 23.7954C8.46536 23.6461 7.01933 22.9426 5.90225 21.7631C5.07851 20.7588 4.64063 19.4944 4.66795 18.2166L4.66908 17.8989C4.71667 16.9274 5.02413 15.9865 5.55923 15.1736L5.64879 15.0584C6.27374 14.3732 6.701 13.5347 6.88639 12.6307L6.86633 12.7119L6.86958 11.9996ZM16.0482 4.52712H15.9531C12.3554 4.52712 9.07746 7.12114 8.77298 10.409C8.75739 10.5897 8.74496 10.7761 8.73525 10.9723L8.71384 11.5941L8.70514 12.8198L8.68596 13.0089C8.43266 14.244 7.84979 15.3879 6.99914 16.3205L7.06483 16.2443L6.94734 16.4388C6.72726 16.8353 6.58528 17.266 6.52918 17.691L6.50588 17.945L6.50567 18.2365C6.48766 19.0857 6.77457 19.9142 7.27167 20.5241C8.0385 21.3313 9.07585 21.836 10.2023 21.9444C14.0525 22.3625 17.937 22.3625 21.8019 21.943C22.9162 21.8403 23.9528 21.3359 24.6779 20.5689C25.2267 19.9107 25.5167 19.0795 25.4955 18.2048L25.4966 17.9868C25.4684 17.3581 25.2681 16.7483 24.9165 16.2229L24.9369 16.2567L24.7531 16.0411C24.1192 15.2588 23.6587 14.3513 23.4023 13.3786L23.3158 13.0109L23.2987 12.8873C23.2857 12.7068 23.2781 12.5464 23.2741 12.3535L23.2705 11.1473C23.268 10.8406 23.2597 10.6341 23.2411 10.4177C22.9259 7.12099 19.6449 4.52712 16.0482 4.52712Z" fill="#666666"/>
</g>
</g>
</g>
</svg>
