<svg width="17" height="18" viewBox="0 0 17 18" fill="none" xmlns="http://www.w3.org/2000/svg">
<g id="Img - T&#195;&#169;l&#195;&#169;phone" opacity="0.8">
<path id="Vector" d="M13.4612 11.2019L11.6832 10.9989C11.2562 10.9499 10.8362 11.0969 10.5352 11.3979L9.2472 12.6859C7.2662 11.6779 5.64222 10.0609 4.63422 8.07295L5.92922 6.77795C6.23022 6.47695 6.37722 6.05695 6.32822 5.62995L6.12522 3.86595C6.04122 3.15895 5.44622 2.62695 4.73222 2.62695H3.52122C2.73022 2.62695 2.07222 3.28495 2.12122 4.07595C2.49222 10.0539 7.2732 14.8279 13.2442 15.1989C14.0352 15.2479 14.6932 14.5899 14.6932 13.7989V12.5879C14.7002 11.8809 14.1682 11.2859 13.4612 11.2019Z" fill="#606060"/>
</g>
</svg>
