<svg width="30" height="21" viewBox="0 0 30 21" fill="none" xmlns="http://www.w3.org/2000/svg">
<path fill-rule="evenodd" clip-rule="evenodd" d="M4.9684 2.21808C7.38659 1.4115 9.83024 2.92625 10.509 5.3787C10.9715 7.04984 10.5335 8.80216 9.46537 10.0021C9.68413 10.2854 9.92317 10.5578 10.1827 10.8175C10.4409 11.0759 10.7117 11.3141 10.9932 11.5321C12.1927 10.4555 13.9503 10.0126 15.6263 10.4771C18.0782 11.1568 19.5902 13.6023 18.7848 16.0204C18.2565 17.607 17.2712 18.5709 15.9571 18.8882C14.7361 19.183 13.4197 18.8696 12.2585 18.387C9.91998 17.4148 7.6108 15.4999 6.5562 14.4446C5.4767 13.3642 3.57009 11.0517 2.60677 8.71757C2.1284 7.55848 1.82039 6.24688 2.1159 5.03148C2.43384 3.72389 3.3929 2.74355 4.9684 2.21808ZM8.58147 5.91218C8.16878 4.42109 6.79755 3.71629 5.60122 4.11532C4.54962 4.46606 4.18488 4.98744 4.05928 5.504C3.91127 6.11276 4.03998 6.94774 4.45551 7.95458C5.27998 9.95229 6.98986 12.0491 7.97094 13.0309C8.92827 13.9889 11.0228 15.7074 13.0263 16.5402C14.0361 16.96 14.8752 17.092 15.4877 16.9441C16.0071 16.8187 16.5332 16.4518 16.8873 15.3884C17.2867 14.1893 16.5807 12.8171 15.0921 12.4044C13.9842 12.0974 12.8451 12.4531 12.1672 13.1792C11.7295 13.648 10.8951 13.9152 10.1851 13.4197C9.68559 13.071 9.2112 12.6748 8.76793 12.2312C8.32396 11.7869 7.92757 11.3113 7.57884 10.8107C7.08641 10.1038 7.34917 9.27258 7.81458 8.83381C8.53521 8.15443 8.88748 7.01787 8.58147 5.91218Z" fill="white"/>
<path fill-rule="evenodd" clip-rule="evenodd" d="M19.0368 2.74143C19.1797 2.20796 19.728 1.89138 20.2615 2.03432C21.9571 2.48864 23.5032 3.38128 24.7444 4.62251C25.9856 5.86375 26.8783 7.40984 27.3326 9.10539C27.4755 9.63886 27.1589 10.1872 26.6255 10.3301C26.092 10.4731 25.5437 10.1565 25.4007 9.62303C25.0373 8.26659 24.3232 7.02971 23.3302 6.03673C22.3372 5.04374 21.1003 4.32963 19.7439 3.96617C19.2104 3.82323 18.8938 3.2749 19.0368 2.74143Z" fill="white"/>
<path fill-rule="evenodd" clip-rule="evenodd" d="M15.8277 6.11475C16.0795 5.66624 16.792 5.44863 17.4191 5.6287C18.3722 5.90236 19.2344 6.31599 19.95 6.84286C20.6656 7.36972 21.2186 7.9981 21.5734 8.68738C21.8069 9.14093 21.4821 9.64396 20.8479 9.81093C20.2137 9.9779 19.5103 9.74558 19.2769 9.29202C19.0403 8.8325 18.6716 8.41358 18.1946 8.06234C17.7175 7.7111 17.1427 7.43535 16.5073 7.25291C15.8802 7.07283 15.5759 6.56326 15.8277 6.11475Z" fill="white"/>
</svg>
