<svg width="24" height="25" viewBox="0 0 24 25" fill="none" xmlns="http://www.w3.org/2000/svg">
<g id="icon_line/Phone">
<path id="Union" fill-rule="evenodd" clip-rule="evenodd" d="M9.54518 8.9974C9.94864 10.4552 9.49484 11.976 8.5005 12.9134C8.31197 13.0911 8.25121 13.3784 8.39933 13.5911C8.71461 14.0437 9.07318 14.4739 9.47524 14.8763C9.87671 15.278 10.3059 15.6365 10.7574 15.9516C10.9706 16.1004 11.2588 16.0387 11.4363 15.8486C12.3721 14.8463 13.8974 14.3876 15.3591 14.7927C17.3294 15.3389 18.4384 17.2477 17.836 19.0563C16.071 24.3563 9.27545 19.1031 7.26351 17.0897C5.20294 15.0276 0.030527 8.27109 5.28475 6.51866C7.09201 5.91585 8.99946 7.02563 9.54518 8.9974Z" stroke="black" stroke-width="2"/>
</g>
</svg>
