<svg width="15" height="15" viewBox="0 0 15 15" fill="none" xmlns="http://www.w3.org/2000/svg">
<path id="Path" fill-rule="evenodd" clip-rule="evenodd" d="M8.24278 6.76H13.4228C13.8315 6.76 14.1628 7.09131 14.1628 7.5C14.1628 7.90869 13.8315 8.24 13.4228 8.24H8.24278V13.42C8.24278 13.8287 7.91147 14.16 7.50278 14.16C7.09408 14.16 6.76278 13.8287 6.76278 13.42V8.24H1.58277C1.17408 8.24 0.842773 7.90869 0.842773 7.5C0.842773 7.09131 1.17408 6.76 1.58277 6.76H6.76278V1.58C6.76278 1.17131 7.09408 0.839996 7.50278 0.839996C7.91147 0.839996 8.24278 1.17131 8.24278 1.58V6.76Z" fill="white"/>
</svg>
