<svg width="16" height="20" viewBox="0 0 16 20" fill="none" xmlns="http://www.w3.org/2000/svg">
<g id="Group 33488">
<path id="Vector" d="M15 8.36364C15 14.0909 7.99998 19 7.99998 19C7.99998 19 0.999985 14.0909 0.999985 8.36364C0.999985 6.41068 1.73748 4.53771 3.05024 3.15676C4.36299 1.77581 6.14347 1 7.99998 1C9.8565 1 11.637 1.77581 12.9497 3.15676C14.2625 4.53771 15 6.41068 15 8.36364Z" stroke="white" stroke-width="2" stroke-linecap="round" stroke-linejoin="round"/>
<path id="Vector_2" d="M7.99998 11C9.65684 11 11 9.65685 11 8C11 6.34315 9.65684 5 7.99998 5C6.34313 5 4.99998 6.34315 4.99998 8C4.99998 9.65685 6.34313 11 7.99998 11Z" stroke="white" stroke-width="2" stroke-linecap="round" stroke-linejoin="round"/>
</g>
</svg>
