<svg width="32" height="32" viewBox="0 0 32 32" fill="none" xmlns="http://www.w3.org/2000/svg">
<g id="Profile">
<g id="Iconly/Light outline/Profile">
<g id="Profile_2">
<path id="Vector" d="M13.1067 19.7612C15.0317 19.5914 16.9679 19.5914 18.8929 19.7612L19.5075 19.8132C20.3482 19.896 21.183 20.0258 22.0044 20.2012C24.0982 20.6325 25.6186 21.3977 26.2916 22.817C26.7916 23.8729 26.7916 25.0988 26.2914 26.1552C25.6167 27.5781 24.0767 28.3497 22.02 28.7554L21.3969 28.8848C20.5641 29.0446 19.7242 29.1537 18.89 29.2108C17.3245 29.3441 15.7517 29.3684 14.2346 29.2849C14.0674 29.2849 13.9551 29.2843 13.8562 29.282L13.6639 29.2748C13.43 29.2629 13.2158 29.2384 13.1259 29.212C12.0704 29.1403 11.0219 28.9875 10.0161 28.7606L9.67493 28.6894C7.77035 28.2662 6.35987 27.5028 5.70744 26.1537C5.46034 25.6302 5.33254 25.058 5.33328 24.4836C5.33113 23.905 5.45998 23.3336 5.71626 22.7998C6.39575 21.4351 7.99218 20.6138 9.98768 20.2028C11.0216 19.9812 12.0697 19.8332 13.1067 19.7612ZM18.7247 21.684C16.9116 21.524 15.088 21.524 13.2572 21.6854C12.2928 21.7525 11.3343 21.8879 10.3814 22.092C8.90554 22.3961 7.77718 22.9765 7.44152 23.6505C7.31792 23.908 7.25425 24.1904 7.2553 24.4812C7.25494 24.7737 7.31947 25.0626 7.44026 25.3186C7.78548 26.0324 8.85022 26.5658 10.4103 26.8716L10.8803 26.9711C11.6675 27.1272 12.4782 27.2348 13.3792 27.3028C13.493 27.3256 13.6158 27.3397 13.7615 27.3471L14.2863 27.3561C15.7665 27.4361 17.2505 27.4132 18.7434 27.2863C19.7055 27.2203 20.6613 27.0816 21.6259 26.8663L21.9259 26.8028C23.2959 26.4922 24.2439 25.9838 24.5558 25.3258C24.8075 24.7944 24.8075 24.1774 24.5561 23.6464C24.2222 22.9422 23.1667 22.411 21.6115 22.0906C20.6654 21.8887 19.7065 21.7532 18.7416 21.6853L18.7247 21.684ZM16.0056 2.66666C19.9177 2.66666 23.089 5.85151 23.089 9.78022C23.089 13.7089 19.9177 16.8938 16.0056 16.8938C12.0936 16.8938 8.92228 13.7089 8.92228 9.78022C8.92228 5.85151 12.0936 2.66666 16.0056 2.66666ZM16.0056 4.59688C13.1551 4.59688 10.8443 6.91754 10.8443 9.78022C10.8443 12.6429 13.1551 14.9636 16.0056 14.9636C18.8562 14.9636 21.167 12.6429 21.167 9.78022C21.167 6.91754 18.8562 4.59688 16.0056 4.59688Z" fill="#666666"/>
</g>
</g>
</g>
</svg>
