<svg width="20" height="20" viewBox="0 0 20 20" fill="none" xmlns="http://www.w3.org/2000/svg">
<g id="Send / undefined / Glyph: ">
<path id="Vector" d="M2.15452 1.31599C1.94102 1.20923 1.68535 1.23342 1.49565 1.37831C1.30595 1.52321 1.21534 1.7635 1.26216 1.99757L3.01575 8.05971C3.08255 8.29061 3.27583 8.46275 3.5129 8.50245L10.625 9.69356C10.96 9.76055 10.96 10.2394 10.625 10.3064L3.5129 11.4975C3.27583 11.5372 3.08255 11.7094 3.01575 11.9403L1.26216 18.0024C1.21534 18.2365 1.30595 18.4767 1.49565 18.6217C1.68535 18.7666 1.94102 18.7907 2.15452 18.684L18.4045 10.559C18.6162 10.4531 18.75 10.2367 18.75 10C18.75 9.76326 18.6162 9.54685 18.4045 9.44099L2.15452 1.31599Z" fill="#3F7BFF"/>
</g>
</svg>
