<svg width="24" height="24" viewBox="0 0 24 24" fill="none" xmlns="http://www.w3.org/2000/svg">
<g id="icon_line/Star">
<path id="Star 1 (Stroke)" fill-rule="evenodd" clip-rule="evenodd" d="M10.2864 3.90808C11.0637 2.61644 12.9363 2.61644 13.7137 3.90808L15.6008 7.04393L19.1664 7.86971C20.635 8.20985 21.2137 9.99079 20.2254 11.1292L17.8263 13.893L18.1427 17.5393C18.273 19.0411 16.7581 20.1418 15.37 19.5537L12 18.126L8.63008 19.5537C7.24201 20.1418 5.72705 19.0411 5.85739 17.5393L6.17384 13.893L3.77464 11.1292C2.78642 9.99079 3.36509 8.20985 4.83371 7.86971L8.39925 7.04393L10.2864 3.90808ZM12 4.93935L10.1129 8.0752C9.83361 8.53922 9.37811 8.87016 8.85051 8.99235L5.28497 9.81814L7.68417 12.582C8.03919 12.991 8.21317 13.5264 8.16635 14.066L7.8499 17.7122L11.2199 16.2845C11.7185 16.0732 12.2816 16.0732 12.7802 16.2845L16.1502 17.7122L15.8337 14.066C15.7869 13.5264 15.9609 12.991 16.3159 12.582L18.7151 9.81814L15.1496 8.99235C14.622 8.87016 14.1665 8.53922 13.8872 8.0752L12 4.93935Z" fill="#666666"/>
</g>
</svg>
