<svg width="20" height="19" viewBox="0 0 20 19" fill="none" xmlns="http://www.w3.org/2000/svg">
<g id="SVG">
<path id="Vector" d="M15.0946 5.28021C14.1828 5.29353 13.4336 6.03735 13.415 6.94913C13.4016 7.59697 13.7482 8.16481 14.2681 8.46345V11.4654C14.2681 12.993 12.9298 14.238 11.2821 14.238C9.68252 14.238 8.37087 13.0623 8.29889 11.5933C10.2397 11.1934 11.7061 9.4712 11.7061 7.41301V3.27003C11.7061 2.9661 11.4901 2.70217 11.1915 2.64351L9.51462 2.3076C9.16799 2.23828 8.83212 2.46222 8.76281 2.8088L8.67742 3.22737C8.60811 3.57396 8.83212 3.90987 9.17868 3.97919L9.99715 4.14181V7.37835C9.99715 8.7887 8.87209 9.95638 7.46176 9.96972C6.0381 9.98307 4.87839 8.83131 4.87839 7.41035V4.14448L5.69685 3.98186C6.04344 3.91254 6.26739 3.57662 6.19807 3.23004L6.11542 2.81147C6.04611 2.46489 5.71019 2.24095 5.36361 2.31026L3.68935 2.64085C3.39076 2.70217 3.1748 2.96344 3.1748 3.27003V7.41301C3.1748 9.47385 4.64378 11.1988 6.58997 11.5933C6.65929 14.0034 8.73612 15.9443 11.2795 15.9443C13.8656 15.9443 15.9717 13.9341 15.9717 11.4654V8.46345C16.4809 8.16747 16.8248 7.61828 16.8248 6.98645C16.8248 6.03469 16.0463 5.26687 15.0946 5.28021ZM15.1186 7.41301C14.8839 7.41301 14.692 7.22106 14.692 6.98645C14.692 6.75184 14.8839 6.55989 15.1186 6.55989C15.3532 6.55989 15.5451 6.75184 15.5451 6.98645C15.5451 7.22106 15.3532 7.41301 15.1186 7.41301Z" fill="#3878FF"/>
</g>
</svg>
