<svg width="14" height="4" viewBox="0 0 14 4" fill="none" xmlns="http://www.w3.org/2000/svg">
<path d="M7.00006 0.444336C6.1445 0.444336 5.4445 1.14434 5.4445 1.99989C5.4445 2.85545 6.1445 3.55545 7.00006 3.55545C7.85561 3.55545 8.55561 2.85545 8.55561 1.99989C8.55561 1.14434 7.85561 0.444336 7.00006 0.444336ZM11.6667 0.444336C10.8112 0.444336 10.1112 1.14434 10.1112 1.99989C10.1112 2.85545 10.8112 3.55545 11.6667 3.55545C12.5223 3.55545 13.2223 2.85545 13.2223 1.99989C13.2223 1.14434 12.5223 0.444336 11.6667 0.444336ZM2.33339 0.444336C1.47783 0.444336 0.777832 1.14434 0.777832 1.99989C0.777832 2.85545 1.47783 3.55545 2.33339 3.55545C3.18894 3.55545 3.88894 2.85545 3.88894 1.99989C3.88894 1.14434 3.18894 0.444336 2.33339 0.444336Z" fill="#0060FF"/>
</svg>
