<svg width="20" height="19" viewBox="0 0 20 19" fill="none" xmlns="http://www.w3.org/2000/svg">
<g id="SVG">
<path id="Vector" d="M9.99225 2.11664C5.80625 2.11664 2.4165 5.51397 2.4165 9.69997C2.4165 13.886 5.80625 17.2833 9.99225 17.2833C14.1858 17.2833 17.5832 13.886 17.5832 9.69997C17.5832 5.51397 14.1858 2.11664 9.99225 2.11664ZM9.99984 15.7666C6.648 15.7666 3.93317 13.0518 3.93317 9.69997C3.93317 6.34814 6.648 3.6333 9.99984 3.6333C13.3517 3.6333 16.0665 6.34814 16.0665 9.69997C16.0665 13.0518 13.3517 15.7666 9.99984 15.7666ZM9.833 5.9083H9.7875C9.48417 5.9083 9.2415 6.15097 9.2415 6.4543V10.0336C9.2415 10.2991 9.378 10.5493 9.61309 10.6858L12.7602 12.5741C13.018 12.7257 13.3517 12.6499 13.5033 12.3921C13.6626 12.1342 13.5792 11.793 13.3138 11.6413L10.379 9.89714V6.4543C10.379 6.15097 10.1363 5.9083 9.833 5.9083Z" fill="#3878FF"/>
</g>
</svg>
