<svg width="48" height="48" viewBox="0 0 48 48" fill="none" xmlns="http://www.w3.org/2000/svg">
<g clip-path="url(#clip0_1054_9017)">
<path d="M48 24C48 10.7452 37.2548 0 24 0C10.7452 0 0 10.7452 0 24C0 37.2548 10.7452 48 24 48C37.2548 48 48 37.2548 48 24Z" fill="#0E0E3A"/>
<path d="M35.4115 17.7587L26.9498 13.1048C26.8249 13.036 26.6846 13 26.542 13C26.3993 13 26.2591 13.036 26.1341 13.1048L17.6725 17.7587C17.5398 17.8317 17.4292 17.939 17.3521 18.0694C17.275 18.1998 17.2344 18.3485 17.2344 18.4999C17.2344 18.6514 17.275 18.8 17.3521 18.9304C17.4292 19.0608 17.5398 19.1681 17.6725 19.2412L25.6958 23.6539V32.724L23.1268 31.3109L22.3111 32.7925L26.1341 34.8952C26.2591 34.964 26.3993 35 26.542 35C26.6846 35 26.8249 34.964 26.9498 34.8952L35.4115 30.2413C35.5442 30.1683 35.6549 30.061 35.732 29.9306C35.8091 29.8002 35.8497 29.6515 35.8498 29.5001V18.4999C35.8497 18.3485 35.8091 18.1998 35.732 18.0694C35.6549 17.939 35.5442 17.8317 35.4115 17.7587ZM26.542 14.8123L33.2478 18.4999L26.542 22.1875L19.8361 18.4999L26.542 14.8123ZM34.1574 29L27.3881 32.7231V23.6531L34.1574 19.9299V29Z" fill="#F5F6EF"/>
<path d="M18.9256 23.1538C18.9256 23.6212 18.5467 24 18.0794 24H13.0024C12.5351 24 12.1562 23.6212 12.1562 23.1538C12.1562 22.6865 12.5351 22.3077 13.0024 22.3077H18.0794C18.5467 22.3077 18.9256 22.6865 18.9256 23.1538ZM20.618 29.9232C20.618 30.3905 20.2391 30.7693 19.7717 30.7693H14.6947C14.2274 30.7693 13.8486 30.3905 13.8486 29.9232C13.8486 29.4558 14.2274 29.077 14.6947 29.077H19.7717C20.2391 29.077 20.618 29.4558 20.618 29.9232ZM22.3102 26.5385C22.3102 27.0058 21.9314 27.3847 21.4641 27.3847H16.3871C15.9198 27.3847 15.5409 27.0058 15.5409 26.5385C15.5409 26.0712 15.9198 25.6923 16.3871 25.6923H21.4641C21.9314 25.6923 22.3102 26.0712 22.3102 26.5385Z" fill="#F5F6EF"/>
</g>
<defs>
<clipPath id="clip0_1054_9017">
<rect width="48" height="48" fill="white"/>
</clipPath>
</defs>
</svg>
