<svg width="48" height="48" viewBox="0 0 48 48" fill="none" xmlns="http://www.w3.org/2000/svg">
<g clip-path="url(#clip0_1054_9024)">
<path d="M48 24C48 10.7452 37.2548 0 24 0C10.7452 0 0 10.7452 0 24C0 37.2548 10.7452 48 24 48C37.2548 48 48 37.2548 48 24Z" fill="#0E0E3A"/>
<path d="M34.9365 18.3111C34.8564 18.0614 34.7036 17.8412 34.4977 17.6788C34.2917 17.5164 34.042 17.4192 33.7805 17.3997L30.1525 17.1129L28.7568 13.807C28.6549 13.5676 28.4848 13.3635 28.2678 13.22C28.0507 13.0765 27.7963 13 27.5361 13C27.2759 13 27.0214 13.0765 26.8043 13.22C26.5873 13.3635 26.4172 13.5676 26.3153 13.807L24.9196 17.1129L21.2916 17.3997C21.0311 17.4189 20.7822 17.5152 20.5767 17.6764C20.3711 17.8377 20.2182 18.0565 20.1375 18.3049C20.0568 18.5534 20.0519 18.8202 20.1235 19.0714C20.195 19.3227 20.3398 19.5469 20.5393 19.7156L23.2952 22.0413L22.4545 25.517C22.3933 25.7688 22.4083 26.033 22.4975 26.2762C22.5866 26.5194 22.746 26.7306 22.9554 26.8832C23.1667 27.039 23.4194 27.1285 23.6817 27.1406C23.9439 27.1527 24.2039 27.0867 24.4286 26.951L27.5361 25.08L30.6445 26.9519C30.8694 27.0873 31.1292 27.153 31.3914 27.141C31.6535 27.1289 31.9062 27.0396 32.1177 26.8842C32.3267 26.7313 32.4857 26.52 32.5747 26.2769C32.6637 26.0337 32.6786 25.7696 32.6176 25.518L31.7769 22.0422L34.5328 19.7165C34.7324 19.5491 34.8774 19.3259 34.9493 19.0755C35.0212 18.8251 35.0168 18.5589 34.9365 18.3111ZM30.3921 21.1514C30.2806 21.2457 30.1976 21.3691 30.1523 21.5079C30.107 21.6467 30.1013 21.7953 30.1358 21.9372L30.949 25.297L27.9417 23.4889C27.8194 23.4153 27.6793 23.3764 27.5365 23.3764C27.3938 23.3764 27.2537 23.4153 27.1314 23.4889L24.1241 25.299L24.9373 21.9372C24.9717 21.7952 24.9658 21.6465 24.9204 21.5077C24.8749 21.3689 24.7917 21.2456 24.68 21.1514L22.0361 18.9181L25.5246 18.6421C25.6682 18.6307 25.8059 18.58 25.9226 18.4957C26.0394 18.4113 26.1307 18.2965 26.1866 18.1638L27.5361 14.9551L28.8904 18.1638C28.9463 18.2965 29.0376 18.4113 29.1544 18.4957C29.2711 18.58 29.4088 18.6307 29.5524 18.6421L33.0419 18.9181L30.3921 21.1514ZM20.0797 23.5262L14.342 29.2698C14.1946 29.4172 13.9946 29.5 13.7861 29.5C13.5776 29.5 13.3777 29.4172 13.2303 29.2698C13.0828 29.1223 13 28.9224 13 28.7139C13 28.5054 13.0828 28.3054 13.2303 28.158L18.9708 22.4174C19.1183 22.27 19.3182 22.1872 19.5267 22.1872C19.7352 22.1872 19.9352 22.27 20.0826 22.4174C20.2301 22.5648 20.3129 22.7648 20.3129 22.9733C20.3129 23.1818 20.2301 23.3818 20.0826 23.5292L20.0797 23.5262ZM21.1414 28.4242C21.2886 28.5715 21.3713 28.7713 21.3713 28.9796C21.3713 29.1879 21.2886 29.3876 21.1414 29.535L15.9135 34.7697C15.766 34.9172 15.5661 35 15.3576 35C15.1491 35 14.9491 34.9172 14.8017 34.7697C14.6542 34.6223 14.5714 34.4224 14.5714 34.2139C14.5714 34.0054 14.6542 33.8054 14.8017 33.658L20.0335 28.4271C20.1808 28.2799 20.3806 28.1972 20.5889 28.1972C20.7972 28.1972 20.997 28.2799 21.1443 28.4271L21.1414 28.4242ZM28.311 28.3259C28.384 28.3989 28.442 28.4856 28.4815 28.581C28.521 28.6763 28.5414 28.7786 28.5414 28.8818C28.5414 28.9851 28.521 29.0873 28.4815 29.1827C28.442 29.2781 28.384 29.3648 28.311 29.4377L22.9799 34.7688C22.8325 34.9162 22.6325 34.999 22.424 34.999C22.2155 34.999 22.0156 34.9162 21.8681 34.7688C21.7207 34.6213 21.6379 34.4214 21.6379 34.2129C21.6379 34.0044 21.7207 33.8044 21.8681 33.657L27.2002 28.3259C27.2733 28.2524 27.3602 28.194 27.456 28.1542C27.5518 28.1144 27.6545 28.0939 27.7582 28.094C27.8619 28.0941 27.9646 28.1147 28.0603 28.1547C28.156 28.1947 28.2429 28.2532 28.3159 28.3269L28.311 28.3259Z" fill="#F5F6EF"/>
</g>
<defs>
<clipPath id="clip0_1054_9024">
<rect width="48" height="48" fill="white"/>
</clipPath>
</defs>
</svg>
