<svg width="32" height="32" viewBox="0 0 32 32" fill="none" xmlns="http://www.w3.org/2000/svg">
<g id="Work">
<g id="Iconly/Light outline/Work">
<g id="Work_2">
<path id="Vector" d="M28.3262 19.6359C28.8769 19.6359 29.3235 20.0825 29.3235 20.6332C29.3235 20.6495 29.2655 21.3839 29.2066 22.1578L29.1716 22.6215C29.1375 23.0791 29.1071 23.5021 29.0929 23.7439C29.0169 24.9945 28.5315 26.2705 27.7942 27.1585C26.7675 28.3959 25.4595 28.9745 23.6809 28.9785C23.6503 28.9786 23.6162 28.9786 23.5787 28.9787L21.8312 28.9799C21.7428 28.98 21.6522 28.98 21.5595 28.9801H10.5069C10.4142 28.98 10.3236 28.98 10.2352 28.9799L8.48829 28.9787L8.38621 28.9785C6.60621 28.9745 5.29821 28.3959 4.27155 27.1572C3.53555 26.2705 3.04888 24.9945 2.97421 23.7439C2.95955 23.5021 2.92888 23.0791 2.89451 22.6215L2.85936 22.1578C2.80024 21.3839 2.74221 20.6495 2.74221 20.6332C2.74221 20.0825 3.18888 19.6359 3.73955 19.6359C4.26355 19.6359 4.68088 20.0439 4.72088 20.5559C4.72088 20.5559 4.92621 22.8879 4.97021 23.6239C5.01955 24.4385 5.35021 25.3252 5.81155 25.8799C6.46488 26.6679 7.18755 26.9759 8.38888 26.9785C8.42908 26.9786 8.47542 26.9787 8.52763 26.9787L10.7505 26.9799C10.8771 26.9799 11.0072 26.98 11.1404 26.98H20.9246C21.0579 26.98 21.188 26.9799 21.3146 26.9799L23.538 26.9787L23.6769 26.9785C24.8795 26.9759 25.6022 26.6679 26.2542 25.8812C26.7169 25.3252 27.0475 24.4385 27.0969 23.6239C27.1395 22.8879 27.3449 20.5559 27.3449 20.5559C27.3849 20.0439 27.8022 19.6359 28.3262 19.6359ZM15.9935 19.5121C16.5455 19.5121 16.9935 19.9601 16.9935 20.5121V22.2375C16.9935 22.7895 16.5455 23.2375 15.9935 23.2375C15.4415 23.2375 14.9935 22.7895 14.9935 22.2375V20.5121C14.9935 19.9601 15.4415 19.5121 15.9935 19.5121ZM17.7147 2.66666C19.7174 2.66666 21.3587 4.17332 21.6081 6.10799H24.2441C27.0427 6.10799 29.3201 8.38532 29.3201 11.1853V15.808C29.3201 16.144 29.1521 16.456 28.8721 16.6427C26.1227 18.4613 22.8601 19.6733 19.4347 20.148C19.3894 20.1547 19.3427 20.1573 19.2974 20.1573C18.8454 20.1573 18.4427 19.8507 18.3281 19.4027C18.0587 18.3413 17.0961 17.6 15.9867 17.6C14.8654 17.6 13.9121 18.3253 13.6147 19.408C13.4814 19.8933 13.0187 20.2053 12.5121 20.1347C9.11075 19.66 5.86141 18.4533 3.11608 16.6427C2.83475 16.4573 2.66675 16.144 2.66675 15.808V11.1853C2.66675 8.38532 4.94941 6.10799 7.75608 6.10799H10.3787C10.6294 4.17199 12.2694 2.66666 14.2721 2.66666H17.7147ZM24.2441 8.10799H7.75608C6.05341 8.10799 4.66675 9.48932 4.66675 11.1853V15.2613C6.85608 16.6173 9.37208 17.5667 12.0147 18.032C12.7667 16.564 14.2934 15.6 15.9867 15.6C17.6947 15.6 19.2147 16.568 19.9454 18.044C22.6041 17.576 25.1294 16.6227 27.3201 15.2613V11.1853C27.3201 9.48932 25.9401 8.10799 24.2441 8.10799ZM17.7147 4.66666H14.2721C13.3747 4.66666 12.6254 5.28132 12.4014 6.10799H19.5841C19.3614 5.28132 18.6107 4.66666 17.7147 4.66666Z" fill="#666666"/>
</g>
</g>
</g>
</svg>
