<svg width="170" height="38" viewBox="0 0 170 38" fill="none" xmlns="http://www.w3.org/2000/svg">
<g clip-path="url(#clip0_1011_10212)">
<path d="M6.56562 33.1819L4.88086 38H0L8.49401 15.79H13.8084L22.3025 38H17.2936L15.5923 33.1819H6.56562ZM14.2957 29.379L11.0872 20.0714L7.82919 29.379H14.2957Z" fill="white"/>
<path d="M33.9215 34.1139C34.8176 34.1139 35.4907 33.8934 35.9408 33.4524C36.3909 33.0113 36.6138 32.3456 36.6138 31.4511C36.6138 30.5565 36.3909 29.8741 35.949 29.4331C35.5072 28.9921 34.83 28.7715 33.9215 28.7715H30.1432C25.8198 28.7715 23.6602 26.5955 23.6602 22.2392C23.6602 20.0714 24.197 18.4571 25.2747 17.3878C26.3483 16.3226 27.9753 15.7859 30.1432 15.7859H40.45V19.672H31.031C29.2802 19.672 28.4047 20.5374 28.4047 22.2683C28.4047 23.1296 28.6236 23.7787 29.0613 24.2197C29.499 24.6607 30.1432 24.8813 30.998 24.8813H34.7433C36.9029 24.8813 38.5464 25.4346 39.6695 26.5372C40.7927 27.644 41.3543 29.2792 41.3543 31.4427C41.3543 33.6063 40.7968 35.2415 39.6778 36.3441C38.5587 37.4425 36.9235 37.9917 34.7763 37.9917H24.1928V34.1056H33.9174L33.9215 34.1139Z" fill="white"/>
<path d="M54.6207 34.1139C55.5168 34.1139 56.1899 33.8934 56.64 33.4524C57.0901 33.0113 57.3131 32.3456 57.3131 31.4511C57.3131 30.5565 57.0901 29.8741 56.6482 29.4331C56.2064 28.9921 55.5292 28.7715 54.6207 28.7715H50.8424C46.519 28.7715 44.3594 26.5955 44.3594 22.2392C44.3594 20.0714 44.8962 18.4571 45.9739 17.3878C47.0476 16.3226 48.6745 15.7859 50.8424 15.7859H61.1492V19.672H51.7302C49.9794 19.672 49.104 20.5374 49.104 22.2683C49.104 23.1296 49.3228 23.7787 49.7605 24.2197C50.1982 24.6607 50.8424 24.8813 51.6972 24.8813H55.4425C57.6021 24.8813 59.2456 25.4346 60.3687 26.5372C61.4919 27.644 62.0535 29.2792 62.0535 31.4427C62.0535 33.6063 61.4961 35.2415 60.377 36.3441C59.258 37.4425 57.6228 37.9917 55.4755 37.9917H44.8921V34.1056H54.6166L54.6207 34.1139Z" fill="white"/>
<path d="M70.6027 15.79V38H66.0977V15.79H70.6027Z" fill="white"/>
<path d="M84.8981 34.1139C85.7941 34.1139 86.4672 33.8934 86.9173 33.4524C87.3674 33.0113 87.5904 32.3456 87.5904 31.4511C87.5904 30.5565 87.3674 29.8741 86.9256 29.4331C86.4837 28.9921 85.8065 28.7715 84.8981 28.7715H81.1198C76.7964 28.7715 74.6367 26.5955 74.6367 22.2392C74.6367 20.0714 75.1735 18.4571 76.2513 17.3878C77.3249 16.3226 78.9519 15.7859 81.1198 15.7859H91.4265V19.672H82.0117C80.2609 19.672 79.3854 20.5374 79.3854 22.2683C79.3854 23.1296 79.6043 23.7787 80.042 24.2197C80.4797 24.6607 81.1239 24.8813 81.9787 24.8813H85.7239C87.8836 24.8813 89.527 25.4346 90.6502 26.5372C91.7734 27.644 92.335 29.2792 92.335 31.4427C92.335 33.6063 91.7775 35.2415 90.6585 36.3441C89.5394 37.4425 87.9042 37.9917 85.757 37.9917H75.1735V34.1056H84.8981V34.1139Z" fill="white"/>
<path d="M94.0742 19.6762V15.79H112.908V19.6762H105.76V38H101.255V19.6762H94.0742Z" fill="white"/>
<path d="M120.169 15.79V38H115.664V15.79H120.169Z" fill="white"/>
<path d="M129.553 38H125.242V15.79H131.011L140.17 31.9753V15.79H144.481V38H138.873L129.553 21.4736V38Z" fill="white"/>
<path d="M154.06 15.79V38H149.555V15.79H154.06Z" fill="white"/>
<path fill-rule="evenodd" clip-rule="evenodd" d="M170.003 12.4281V7.53093H162.227V0H157.367V7.53093V12.4281H170.003Z" fill="#0080FF"/>
<path style="mix-blend-mode:overlay" fill-rule="evenodd" clip-rule="evenodd" d="M170.003 12.4281V7.53093H162.227V0H157.367V7.53093V12.4281H170.003Z" fill="url(#paint0_radial_1011_10212)"/>
<path d="M162.227 12.4282L149.591 12.4282V7.53104L157.366 7.53104C160.05 7.53104 162.227 9.72374 162.227 12.4282Z" fill="#0086FF"/>
<path d="M162.227 19.9592V12.4282H157.366V19.9592H162.227Z" fill="#0086FF"/>
<path style="mix-blend-mode:overlay" fill-rule="evenodd" clip-rule="evenodd" d="M157.364 12.4282V19.9592H162.224V12.4282V16.1937L161.831 14.8747C161.402 13.4226 160.076 12.4282 158.573 12.4282H157.359H157.364Z" fill="url(#paint1_linear_1011_10212)"/>
</g>
<defs>
<radialGradient id="paint0_radial_1011_10212" cx="0" cy="0" r="1" gradientUnits="userSpaceOnUse" gradientTransform="translate(158.664 11.9496) scale(6.01229 6.05803)">
<stop/>
<stop offset="1" stop-opacity="0"/>
</radialGradient>
<linearGradient id="paint1_linear_1011_10212" x1="160.584" y1="11.2715" x2="159.44" y2="18.2755" gradientUnits="userSpaceOnUse">
<stop/>
<stop offset="1" stop-opacity="0"/>
</linearGradient>
<clipPath id="clip0_1011_10212">
<rect width="170" height="38" fill="white"/>
</clipPath>
</defs>
</svg>
